<svg xmlns="http://www.w3.org/2000/svg" version="1.1" width="3300" height="2000"><g id="Notes"><style>
    text {
      font-family: monospace;
      text-anchor: middle;
    }
    text.emphasis {
      font-weight:bold;
    }
    text.lanchor {
      text-anchor: start;
    }
  </style><rect height="2200" id="artboard" fill="white" width="3300" x="0" y="0"/><line id="" style="fill:none;stroke:black;stroke-width:0.5;" x1="263" x2="3036" y1="292" y2="292"/><text class="lanchor emphasis" transform="matrix(1 0 0 1 263 322)">Weight/Scale Variations</text><text transform="matrix(1 0 0 1 559.711 322)">Ultralight</text><text transform="matrix(1 0 0 1 856.422 322)">Thin</text><text transform="matrix(1 0 0 1 1153.13 322)">Light</text><text transform="matrix(1 0 0 1 1449.84 322)">Regular</text><text transform="matrix(1 0 0 1 1746.56 322)">Medium</text><text transform="matrix(1 0 0 1 2043.27 322)">Semibold</text><text transform="matrix(1 0 0 1 2339.98 322)">Bold</text><text transform="matrix(1 0 0 1 2636.69 322)">Heavy</text><text transform="matrix(1 0 0 1 2933.4 322)">Black</text><text id="template-version" style="text-anchor: end;" transform="matrix(1 0 0 1 3036 1933)">Template v.1.0</text><text class="lanchor" transform="matrix(1 0 0 1 263 726)">Small</text><text class="lanchor" transform="matrix(1 0 0 1 263 1156)">Medium</text><text class="lanchor" transform="matrix(1 0 0 1 263 1586)">Large</text></g><g id="Guides"><g id="H-reference" style="fill:#27AAE1;stroke:none;" transform="matrix(1 0 0 1 339 696)"><path d="M 54.9316 0 L 57.666 0 L 30.5664 -70.459 L 28.0762 -70.459 L 0.976562 0 L 3.66211 0 L 12.9395 -24.4629 L 45.7031 -24.4629 Z M 29.1992 -67.0898 L 29.4434 -67.0898 L 44.8242 -26.709 L 13.8184 -26.709 Z"/></g><line id="Baseline-S" style="fill:none;stroke:#27AAE1;opacity:1;stroke-width:0.577;" x1="263" x2="3036" y1="696" y2="696"/><line id="Capline-S" style="fill:none;stroke:#27AAE1;opacity:1;stroke-width:0.577;" x1="263" x2="3036" y1="625.541" y2="625.541"/><g id="H-reference" style="fill:#27AAE1;stroke:none;" transform="matrix(1 0 0 1 339 1126)"><path d="M 54.9316 0 L 57.666 0 L 30.5664 -70.459 L 28.0762 -70.459 L 0.976562 0 L 3.66211 0 L 12.9395 -24.4629 L 45.7031 -24.4629 Z M 29.1992 -67.0898 L 29.4434 -67.0898 L 44.8242 -26.709 L 13.8184 -26.709 Z"/></g><line id="Baseline-M" style="fill:none;stroke:#27AAE1;opacity:1;stroke-width:0.577;" x1="263" x2="3036" y1="1126" y2="1126"/><line id="Capline-M" style="fill:none;stroke:#27AAE1;opacity:1;stroke-width:0.577;" x1="263" x2="3036" y1="1055.54" y2="1055.54"/><g id="H-reference" style="fill:#27AAE1;stroke:none;" transform="matrix(1 0 0 1 339 1556)"><path d="M 54.9316 0 L 57.666 0 L 30.5664 -70.459 L 28.0762 -70.459 L 0.976562 0 L 3.66211 0 L 12.9395 -24.4629 L 45.7031 -24.4629 Z M 29.1992 -67.0898 L 29.4434 -67.0898 L 44.8242 -26.709 L 13.8184 -26.709 Z"/></g><line id="Baseline-L" style="fill:none;stroke:#27AAE1;opacity:1;stroke-width:0.577;" x1="263" x2="3036" y1="1556" y2="1556"/><line id="Capline-L" style="fill:none;stroke:#27AAE1;opacity:1;stroke-width:0.577;" x1="263" x2="3036" y1="1485.54" y2="1485.54"/><rect height="119.336" id="left-margin" style="fill:darkred;stroke:none;opacity:0.4;" width="12.4512" x="1394.06" y="1030.79"/><rect height="119.336" id="right-margin" style="fill:darkgreen;stroke:none;opacity:0.4;" width="12.4512" x="1502.5112" y="1030.79"/><rect x="1406.5112" y="1045" width="96" height="96" fill="none" stroke="blue" stroke-dasharray="5"/><rect x="1394.06" y="1030.79" width="120.9024" height="119.336" fill="none" stroke="blue"/></g><g id="Symbols"><g id="Bold-L" transform="matrix(1 0 0 1 2266 1556)"><path d="M20.479 -50.387 Q19.35 -50.871 19.108 -52.161 Q18.866 -53.451 19.35 -54.419 Q29.186 -68.931 44.666 -76.832 Q60.146 -84.734 77.884 -84.734 Q95.138 -84.734 110.456 -77.236 Q125.775 -69.737 135.773 -55.709 Q136.74 -54.257 136.498 -53.048 Q136.256 -51.839 135.289 -51.032 Q134.321 -50.226 133.031 -50.307 Q131.741 -50.387 130.935 -51.839 Q121.905 -64.577 107.796 -71.431 Q93.686 -78.284 77.884 -78.445 Q61.92 -78.445 47.972 -71.592 Q34.024 -64.739 25.155 -51.677 Q24.026 -50.226 22.736 -49.984 Q21.446 -49.742 20.479 -50.387 Z M98.524 31.366 Q79.657 27.496 68.934 14.354 Q58.211 1.213 58.211 -17.009 Q58.211 -25.232 63.936 -31.037 Q69.66 -36.842 77.884 -36.842 Q86.108 -36.842 91.913 -31.279 Q97.718 -25.716 97.718 -17.654 Q97.718 -12.01 101.668 -8.14 Q105.619 -4.27 111.263 -4.27 Q116.745 -4.27 120.615 -8.14 Q124.485 -12.01 124.485 -17.654 Q124.485 -36.52 110.779 -49.339 Q97.073 -62.159 77.722 -62.159 Q58.373 -62.159 44.828 -49.017 Q31.283 -35.875 31.283 -16.847 Q31.283 -10.881 32.169 -5.076 Q33.056 0.729 35.153 6.211 Q35.636 7.824 35.233 8.791 Q34.83 9.759 33.701 10.243 Q32.411 10.726 31.121 10.404 Q29.831 10.081 29.186 8.308 Q27.574 3.631 26.364 -2.899 Q25.155 -9.43 25.155 -17.009 Q25.155 -38.132 40.716 -53.532 Q56.276 -68.931 77.884 -68.931 Q99.814 -68.931 115.294 -54.016 Q130.774 -39.1 130.774 -17.654 Q130.774 -9.591 125.13 -3.786 Q119.486 2.019 111.263 2.019 Q102.877 2.019 97.073 -3.544 Q91.267 -9.107 91.267 -17.009 Q91.267 -22.652 87.398 -26.684 Q83.528 -30.715 77.884 -30.715 Q72.401 -30.715 68.451 -26.684 Q64.5 -22.652 64.5 -17.009 Q64.5 -0.561 73.853 10.726 Q83.205 22.014 100.297 25.723 Q101.749 25.884 102.233 26.932 Q102.716 27.98 102.555 29.109 Q102.233 30.399 101.346 31.044 Q100.459 31.689 98.524 31.366 Z M40.151 -85.217 Q38.539 -84.411 37.491 -84.734 Q36.443 -85.056 35.797 -86.024 Q35.314 -86.669 35.475 -88.201 Q35.636 -89.732 36.765 -90.216 Q46.117 -95.699 56.679 -98.198 Q67.241 -100.697 77.884 -100.697 Q88.526 -100.697 98.766 -98.198 Q109.005 -95.699 118.358 -90.7 Q119.809 -90.055 120.051 -88.765 Q120.293 -87.475 119.809 -86.507 Q119.164 -85.54 118.035 -84.976 Q116.906 -84.411 115.616 -85.217 Q106.909 -89.571 97.314 -91.99 Q87.72 -94.409 77.884 -94.409 Q67.886 -94.409 58.373 -92.151 Q48.859 -89.894 40.151 -85.217 Z M60.469 28.625 Q51.116 19.111 46.44 7.904 Q41.764 -3.302 41.764 -17.009 Q41.764 -31.844 52.245 -42.325 Q62.726 -52.806 77.884 -52.806 Q92.88 -52.806 103.603 -42.567 Q114.326 -32.327 114.326 -17.654 Q114.326 -16.041 113.601 -14.993 Q112.875 -13.945 111.263 -13.945 Q109.489 -13.945 108.683 -14.993 Q107.876 -16.041 107.876 -17.654 Q107.876 -29.909 99.088 -38.294 Q90.3 -46.679 77.884 -46.679 Q65.468 -46.679 56.76 -37.971 Q48.053 -29.264 48.053 -17.009 Q48.053 -4.109 52.084 5.486 Q56.115 15.08 65.306 24.594 Q66.435 25.723 66.435 26.851 Q66.435 27.98 65.79 28.786 Q64.984 29.915 63.291 29.915 Q61.598 29.915 60.469 28.625 Z M112.391 17.66 Q96.75 17.66 85.785 8.549 Q74.82 -0.561 74.82 -17.492 Q74.82 -18.944 75.626 -19.911 Q76.433 -20.879 77.884 -20.879 Q79.335 -20.879 80.141 -19.911 Q80.948 -18.944 80.948 -17.492 Q80.948 -3.302 90.219 4.115 Q99.491 11.533 112.391 11.533 Q114.004 11.533 116.1 11.21 Q118.196 10.888 119.97 10.888 Q121.26 10.888 122.147 11.694 Q123.034 12.5 122.873 13.468 Q122.873 14.758 122.308 15.483 Q121.744 16.209 120.776 16.531 Q118.519 17.338 116.181 17.499 Q113.843 17.66 112.391 17.66 Z"/></g><g id="Semibold-L" transform="matrix(1 0 0 1 1970.27 1556)"><path d="M20.198 -51.089 Q19.28 -51.502 19.143 -52.547 Q19.007 -53.592 19.42 -54.419 Q29.327 -68.651 44.736 -76.412 Q60.146 -84.173 77.743 -84.173 Q95.067 -84.173 110.421 -76.71 Q125.775 -69.247 135.843 -55.288 Q136.6 -54.117 136.428 -53.223 Q136.256 -52.329 135.499 -51.663 Q134.742 -50.997 133.697 -51.043 Q132.653 -51.089 131.917 -52.259 Q122.676 -65.208 108.286 -72.167 Q93.897 -79.125 77.743 -79.216 Q61.499 -79.216 47.306 -72.223 Q33.112 -65.229 23.893 -52.168 Q22.975 -50.997 22 -50.791 Q21.026 -50.584 20.198 -51.089 Z M97.753 30.385 Q79.868 26.375 69.145 13.548 Q58.422 0.722 58.422 -17.289 Q58.422 -25.232 64.076 -30.757 Q69.73 -36.282 77.743 -36.282 Q85.757 -36.282 91.457 -30.894 Q97.157 -25.506 97.157 -17.654 Q97.157 -11.8 101.458 -7.789 Q105.759 -3.779 111.683 -3.779 Q117.446 -3.779 121.632 -7.789 Q125.817 -11.8 125.817 -17.654 Q125.817 -36.941 111.655 -50.005 Q97.493 -63.07 77.652 -63.07 Q57.812 -63.07 43.741 -49.823 Q29.67 -36.576 29.67 -17.198 Q29.67 -12.143 30.557 -6.163 Q31.444 -0.183 33.891 6.352 Q34.304 7.613 33.936 8.336 Q33.568 9.058 32.72 9.471 Q31.71 9.885 30.666 9.633 Q29.621 9.38 29.116 8.027 Q27.293 2.72 26.084 -3.741 Q24.875 -10.201 24.875 -17.289 Q24.875 -38.273 40.54 -53.392 Q56.206 -68.511 77.743 -68.511 Q99.673 -68.511 115.259 -53.77 Q130.844 -39.03 130.844 -17.654 Q130.844 -9.872 125.27 -4.347 Q119.697 1.178 111.683 1.178 Q103.508 1.178 97.774 -4.21 Q92.039 -9.598 92.039 -17.289 Q92.039 -23.213 87.853 -27.315 Q83.668 -31.416 77.743 -31.416 Q71.911 -31.416 67.644 -27.315 Q63.378 -23.213 63.378 -17.289 Q63.378 -0.702 73.081 10.551 Q82.784 21.803 99.036 25.863 Q100.277 26.094 100.655 26.897 Q101.034 27.7 100.873 28.618 Q100.62 29.698 99.909 30.203 Q99.197 30.707 97.753 30.385 Z M40.011 -85.989 Q38.749 -85.393 37.981 -85.68 Q37.214 -85.968 36.709 -86.725 Q36.295 -87.23 36.386 -88.376 Q36.477 -89.522 37.326 -89.936 Q46.608 -95.208 56.96 -97.742 Q67.311 -100.277 77.743 -100.277 Q88.316 -100.277 98.485 -97.742 Q108.654 -95.208 117.937 -90.349 Q119.108 -89.845 119.28 -88.835 Q119.451 -87.826 119.038 -87.068 Q118.533 -86.311 117.649 -85.852 Q116.766 -85.393 115.686 -85.989 Q106.909 -90.342 97.279 -92.796 Q87.65 -95.25 77.743 -95.25 Q67.746 -95.25 58.232 -92.957 Q48.718 -90.665 40.011 -85.989 Z M60.889 28.064 Q51.537 18.48 46.615 7.519 Q41.694 -3.443 41.694 -17.289 Q41.694 -31.914 52.21 -42.115 Q62.726 -52.316 77.743 -52.316 Q92.67 -52.316 103.393 -42.251 Q114.116 -32.187 114.116 -17.654 Q114.116 -16.392 113.53 -15.624 Q112.945 -14.856 111.683 -14.856 Q110.33 -14.856 109.664 -15.624 Q108.998 -16.392 108.998 -17.654 Q108.998 -30.259 99.789 -38.855 Q90.58 -47.45 77.743 -47.45 Q64.907 -47.45 55.814 -38.672 Q46.721 -29.895 46.721 -17.289 Q46.721 -4.039 51.067 5.591 Q55.414 15.22 64.675 24.804 Q65.594 25.723 65.559 26.606 Q65.524 27.489 64.949 28.155 Q64.353 28.933 63.08 29.039 Q61.808 29.144 60.889 28.064 Z M111.69 16.749 Q96.68 16.749 85.96 7.498 Q75.241 -1.753 75.241 -17.563 Q75.241 -18.733 75.872 -19.491 Q76.503 -20.248 77.673 -20.248 Q78.844 -20.248 79.475 -19.491 Q80.106 -18.733 80.106 -17.563 Q80.106 -3.863 89.518 4.01 Q98.93 11.883 111.69 11.883 Q113.163 11.883 115.118 11.631 Q117.075 11.378 118.988 11.238 Q120.068 11.168 120.78 11.799 Q121.491 12.43 121.47 13.187 Q121.541 14.197 121.116 14.817 Q120.692 15.438 119.795 15.69 Q117.257 16.496 114.989 16.623 Q112.721 16.749 111.69 16.749 Z"/></g><g id="Medium-L" transform="matrix(1 0 0 1 1674.31 1556)"><path d="M19.988 -51.614 Q19.227 -51.975 19.169 -52.836 Q19.112 -53.697 19.473 -54.419 Q29.432 -68.441 44.789 -76.096 Q60.146 -83.752 77.638 -83.752 Q95.015 -83.752 110.395 -76.316 Q125.775 -68.879 135.895 -54.973 Q136.495 -54.012 136.375 -53.355 Q136.256 -52.698 135.657 -52.137 Q135.057 -51.576 134.197 -51.595 Q133.336 -51.614 132.653 -52.575 Q123.255 -65.682 108.654 -72.719 Q94.054 -79.756 77.638 -79.795 Q61.184 -79.795 46.806 -72.696 Q32.429 -65.598 22.947 -52.536 Q22.186 -51.576 21.448 -51.395 Q20.71 -51.215 19.988 -51.614 Z M97.174 29.649 Q80.026 25.533 69.303 12.943 Q58.579 0.354 58.579 -17.499 Q58.579 -25.232 64.181 -30.547 Q69.783 -35.861 77.638 -35.861 Q85.494 -35.861 91.115 -30.605 Q96.736 -25.348 96.736 -17.654 Q96.736 -11.642 101.3 -7.527 Q105.864 -3.411 111.999 -3.411 Q117.972 -3.411 122.394 -7.527 Q126.816 -11.642 126.816 -17.654 Q126.816 -37.256 112.312 -50.505 Q97.809 -63.754 77.6 -63.754 Q57.391 -63.754 42.926 -50.428 Q28.461 -37.102 28.461 -17.461 Q28.461 -13.09 29.348 -6.978 Q30.234 -0.866 32.944 6.457 Q33.305 7.456 32.963 7.994 Q32.622 8.532 31.984 8.893 Q31.184 9.254 30.324 9.054 Q29.463 8.854 29.064 7.817 Q27.083 2.036 25.874 -4.372 Q24.664 -10.78 24.664 -17.499 Q24.664 -38.378 40.409 -53.286 Q56.154 -68.195 77.638 -68.195 Q99.568 -68.195 115.232 -53.586 Q130.896 -38.977 130.896 -17.654 Q130.896 -10.082 125.375 -4.768 Q119.854 0.547 111.999 0.547 Q103.982 0.547 98.299 -4.71 Q92.617 -9.966 92.617 -17.499 Q92.617 -23.634 88.195 -27.788 Q83.773 -31.942 77.638 -31.942 Q71.542 -31.942 67.04 -27.788 Q62.537 -23.634 62.537 -17.499 Q62.537 -0.807 72.503 10.42 Q82.469 21.646 98.089 25.968 Q99.172 26.252 99.472 26.871 Q99.772 27.489 99.61 28.25 Q99.411 29.172 98.83 29.572 Q98.25 29.971 97.174 29.649 Z M39.906 -86.567 Q38.907 -86.129 38.349 -86.39 Q37.792 -86.651 37.392 -87.251 Q37.031 -87.65 37.07 -88.507 Q37.108 -89.364 37.747 -89.726 Q46.976 -94.84 57.17 -97.401 Q67.364 -99.961 77.638 -99.961 Q88.158 -99.961 98.275 -97.401 Q108.392 -94.84 117.621 -90.087 Q118.582 -89.687 118.701 -88.888 Q118.82 -88.088 118.459 -87.489 Q118.06 -86.89 117.36 -86.509 Q116.661 -86.129 115.739 -86.567 Q106.909 -90.921 97.253 -93.401 Q87.597 -95.881 77.638 -95.881 Q67.641 -95.881 58.127 -93.562 Q48.613 -91.243 39.906 -86.567 Z M61.205 27.643 Q51.852 18.007 46.747 7.23 Q41.641 -3.548 41.641 -17.499 Q41.641 -31.966 52.184 -41.957 Q62.726 -51.947 77.638 -51.947 Q92.512 -51.947 103.235 -42.015 Q113.958 -32.082 113.958 -17.654 Q113.958 -16.655 113.478 -16.097 Q112.998 -15.54 111.999 -15.54 Q110.961 -15.54 110.4 -16.097 Q109.839 -16.655 109.839 -17.654 Q109.839 -30.522 100.315 -39.275 Q90.791 -48.028 77.638 -48.028 Q64.486 -48.028 55.104 -39.198 Q45.721 -30.368 45.721 -17.499 Q45.721 -3.986 50.305 5.67 Q54.888 15.325 64.202 24.962 Q64.963 25.723 64.901 26.422 Q64.84 27.121 64.318 27.682 Q63.88 28.197 62.922 28.381 Q61.966 28.565 61.205 27.643 Z M111.164 16.065 Q96.627 16.065 86.092 6.709 Q75.556 -2.647 75.556 -17.615 Q75.556 -18.576 76.056 -19.175 Q76.555 -19.775 77.516 -19.775 Q78.476 -19.775 78.976 -19.175 Q79.475 -18.576 79.475 -17.615 Q79.475 -4.284 88.992 3.931 Q98.51 12.146 111.164 12.146 Q112.532 12.146 114.382 11.946 Q116.233 11.746 118.252 11.501 Q119.174 11.378 119.754 11.878 Q120.335 12.377 120.419 12.977 Q120.541 13.776 120.222 14.318 Q119.903 14.859 119.059 15.059 Q116.31 15.865 114.095 15.965 Q111.879 16.065 111.164 16.065 Z"/></g><g id="Regular-L" transform="matrix(1 0 0 1 1378.56 1556)"><path d="M19.834 -52 Q19.189 -52.322 19.189 -53.048 Q19.189 -53.774 19.511 -54.419 Q29.509 -68.286 44.828 -75.865 Q60.146 -83.444 77.561 -83.444 Q94.976 -83.444 110.376 -76.026 Q125.775 -68.609 135.934 -54.741 Q136.417 -53.935 136.337 -53.451 Q136.256 -52.967 135.773 -52.484 Q135.289 -52 134.563 -52 Q133.838 -52 133.192 -52.806 Q123.679 -66.029 108.924 -73.124 Q94.17 -80.219 77.561 -80.219 Q60.953 -80.219 46.44 -73.043 Q31.928 -65.867 22.253 -52.806 Q21.608 -52 21.043 -51.839 Q20.479 -51.677 19.834 -52 Z M96.75 29.109 Q80.141 24.916 69.418 12.5 Q58.695 0.084 58.695 -17.654 Q58.695 -25.232 64.258 -30.392 Q69.821 -35.552 77.561 -35.552 Q85.301 -35.552 90.864 -30.392 Q96.428 -25.232 96.428 -17.654 Q96.428 -11.526 101.184 -7.334 Q105.941 -3.141 112.23 -3.141 Q118.358 -3.141 122.953 -7.334 Q127.549 -11.526 127.549 -17.654 Q127.549 -37.487 112.794 -50.871 Q98.04 -64.255 77.561 -64.255 Q57.083 -64.255 42.328 -50.871 Q27.574 -37.487 27.574 -17.654 Q27.574 -13.784 28.461 -7.576 Q29.348 -1.367 32.25 6.534 Q32.572 7.34 32.25 7.743 Q31.928 8.146 31.444 8.469 Q30.799 8.791 30.073 8.63 Q29.348 8.469 29.025 7.663 Q26.929 1.535 25.719 -4.834 Q24.51 -11.204 24.51 -17.654 Q24.51 -38.455 40.312 -53.209 Q56.115 -67.964 77.561 -67.964 Q99.491 -67.964 115.213 -53.451 Q130.935 -38.939 130.935 -17.654 Q130.935 -10.236 125.453 -5.076 Q119.97 0.084 112.23 0.084 Q104.329 0.084 98.685 -5.076 Q93.041 -10.236 93.041 -17.654 Q93.041 -23.942 88.446 -28.135 Q83.85 -32.327 77.561 -32.327 Q71.273 -32.327 66.596 -28.135 Q61.92 -23.942 61.92 -17.654 Q61.92 -0.884 72.079 10.323 Q82.237 21.53 97.395 26.045 Q98.362 26.368 98.604 26.851 Q98.846 27.335 98.685 27.98 Q98.524 28.786 98.04 29.109 Q97.556 29.431 96.75 29.109 Z M39.829 -86.991 Q39.023 -86.669 38.619 -86.911 Q38.216 -87.152 37.894 -87.636 Q37.571 -87.959 37.571 -88.604 Q37.571 -89.249 38.055 -89.571 Q47.246 -94.57 57.324 -97.15 Q67.403 -99.73 77.561 -99.73 Q88.043 -99.73 98.121 -97.15 Q108.199 -94.57 117.39 -89.894 Q118.196 -89.571 118.277 -88.926 Q118.358 -88.281 118.035 -87.797 Q117.713 -87.314 117.148 -86.991 Q116.584 -86.669 115.778 -86.991 Q106.909 -91.345 97.234 -93.844 Q87.559 -96.344 77.561 -96.344 Q67.564 -96.344 58.05 -94.006 Q48.536 -91.667 39.829 -86.991 Z M61.436 27.335 Q52.084 17.66 46.843 7.018 Q41.602 -3.625 41.602 -17.654 Q41.602 -32.005 52.164 -41.841 Q62.726 -51.677 77.561 -51.677 Q92.396 -51.677 103.119 -41.841 Q113.843 -32.005 113.843 -17.654 Q113.843 -16.847 113.439 -16.444 Q113.036 -16.041 112.23 -16.041 Q111.424 -16.041 110.94 -16.444 Q110.456 -16.847 110.456 -17.654 Q110.456 -30.715 100.701 -39.584 Q90.945 -48.452 77.561 -48.452 Q64.177 -48.452 54.583 -39.584 Q44.989 -30.715 44.989 -17.654 Q44.989 -3.947 49.746 5.728 Q54.503 15.403 63.855 25.078 Q64.5 25.723 64.419 26.287 Q64.339 26.851 63.855 27.335 Q63.532 27.658 62.807 27.899 Q62.081 28.141 61.436 27.335 Z M110.779 15.564 Q96.589 15.564 86.188 6.131 Q75.788 -3.302 75.788 -17.654 Q75.788 -18.46 76.191 -18.944 Q76.594 -19.427 77.4 -19.427 Q78.206 -19.427 78.609 -18.944 Q79.013 -18.46 79.013 -17.654 Q79.013 -4.592 88.607 3.873 Q98.201 12.339 110.779 12.339 Q112.069 12.339 113.843 12.178 Q115.616 12.016 117.713 11.694 Q118.519 11.533 119.002 11.936 Q119.486 12.339 119.648 12.823 Q119.809 13.468 119.567 13.951 Q119.325 14.435 118.519 14.596 Q115.616 15.403 113.439 15.483 Q111.263 15.564 110.779 15.564 Z"/></g><g id="Light-L" transform="matrix(1 0 0 1 1082.77 1556)"><path d="M20.206 -52 Q19.654 -52.322 19.638 -53.017 Q19.623 -53.712 19.945 -54.295 Q29.943 -68.038 45.081 -75.617 Q60.219 -83.196 77.437 -83.196 Q94.683 -83.196 109.981 -75.809 Q125.279 -68.423 135.438 -54.617 Q135.921 -53.811 135.779 -53.265 Q135.636 -52.719 135.09 -52.236 Q134.607 -51.814 133.853 -51.838 Q133.099 -51.862 132.51 -52.682 Q123.059 -65.843 108.462 -72.845 Q93.865 -79.847 77.437 -79.847 Q61.077 -79.847 46.719 -72.733 Q32.362 -65.619 22.811 -52.682 Q22.104 -51.814 21.477 -51.715 Q20.851 -51.615 20.206 -52 Z M96.44 28.799 Q80.079 24.606 69.418 12.249 Q58.757 -0.108 58.757 -17.778 Q58.757 -25.357 64.289 -30.486 Q69.821 -35.615 77.566 -35.615 Q85.248 -35.615 90.745 -30.486 Q96.241 -25.357 96.241 -17.778 Q96.241 -11.679 100.917 -7.565 Q105.593 -3.451 111.777 -3.451 Q117.923 -3.451 122.426 -7.582 Q126.929 -11.712 126.929 -17.778 Q126.929 -37.459 112.341 -50.795 Q97.754 -64.131 77.45 -64.131 Q57.145 -64.131 42.576 -50.808 Q28.008 -37.484 28.008 -17.778 Q28.008 -13.877 28.957 -7.746 Q29.906 -1.616 32.684 6.286 Q33.007 7.092 32.715 7.526 Q32.424 7.96 31.816 8.345 Q31.109 8.667 30.414 8.471 Q29.72 8.274 29.397 7.476 Q27.177 1.101 25.968 -5.144 Q24.758 -11.39 24.758 -17.778 Q24.758 -38.633 40.408 -53.236 Q56.058 -67.84 77.44 -67.84 Q99.181 -67.84 114.81 -53.385 Q130.439 -38.931 130.439 -17.778 Q130.439 -10.369 124.971 -5.205 Q119.504 -0.04 111.796 -0.04 Q104.019 -0.04 98.406 -5.205 Q92.793 -10.369 92.793 -17.778 Q92.793 -23.942 88.292 -28.104 Q83.791 -32.265 77.561 -32.265 Q71.281 -32.265 66.693 -28.121 Q62.106 -23.976 62.106 -17.778 Q62.106 -1.132 72.141 9.982 Q82.175 21.096 97.209 25.549 Q98.148 25.875 98.435 26.378 Q98.722 26.881 98.561 27.558 Q98.338 28.352 97.823 28.737 Q97.308 29.121 96.44 28.799 Z M39.953 -86.495 Q39.333 -86.297 38.836 -86.507 Q38.34 -86.718 38.08 -87.202 Q37.819 -87.587 37.819 -88.263 Q37.819 -88.939 38.303 -89.261 Q47.37 -94.26 57.386 -96.809 Q67.403 -99.358 77.561 -99.358 Q87.899 -99.358 97.837 -96.84 Q107.775 -94.322 116.894 -89.584 Q117.762 -89.199 117.905 -88.523 Q118.047 -87.847 117.725 -87.301 Q117.402 -86.818 116.807 -86.495 Q116.212 -86.173 115.467 -86.495 Q106.723 -91.097 97.111 -93.503 Q87.5 -95.91 77.531 -95.91 Q67.626 -95.91 58.174 -93.509 Q48.722 -91.109 39.953 -86.495 Z M61.498 27.025 Q52.27 17.35 47.06 6.738 Q41.851 -3.873 41.851 -17.78 Q41.851 -32.067 52.353 -41.872 Q62.856 -51.677 77.564 -51.677 Q92.272 -51.677 102.871 -41.872 Q113.47 -32.067 113.47 -17.778 Q113.47 -16.953 113.045 -16.528 Q112.621 -16.103 111.796 -16.103 Q111.114 -16.103 110.568 -16.528 Q110.022 -16.953 110.022 -17.778 Q110.022 -30.715 100.423 -39.522 Q90.824 -48.328 77.563 -48.328 Q64.302 -48.328 54.8 -39.522 Q45.299 -30.715 45.299 -17.783 Q45.299 -4.134 50.056 5.417 Q54.813 14.968 63.979 24.631 Q64.686 25.35 64.543 25.977 Q64.401 26.603 63.979 27.025 Q63.595 27.409 62.869 27.589 Q62.143 27.769 61.498 27.025 Z M110.407 15.316 Q96.341 15.316 86.002 5.909 Q75.663 -3.498 75.663 -17.778 Q75.663 -18.559 76.085 -19.055 Q76.506 -19.552 77.325 -19.552 Q78.144 -19.552 78.578 -19.055 Q79.013 -18.559 79.013 -17.778 Q79.013 -4.774 88.452 3.596 Q97.891 11.967 110.407 11.967 Q111.883 11.967 113.687 11.805 Q115.492 11.644 117.464 11.322 Q118.147 11.222 118.63 11.563 Q119.114 11.905 119.275 12.525 Q119.499 13.202 119.164 13.695 Q118.829 14.187 118.023 14.348 Q115.678 15.03 113.563 15.173 Q111.449 15.316 110.407 15.316 Z"/></g><g id="Thin-L" transform="matrix(1 0 0 1 787.282 1556)"><path d="M20.578 -52 Q20.119 -52.322 20.088 -52.986 Q20.057 -53.65 20.38 -54.171 Q30.377 -67.79 45.334 -75.369 Q60.291 -82.948 77.313 -82.948 Q94.391 -82.948 109.587 -75.592 Q124.783 -68.237 134.941 -54.493 Q135.425 -53.687 135.221 -53.079 Q135.016 -52.471 134.408 -51.988 Q133.924 -51.628 133.142 -51.676 Q132.36 -51.724 131.828 -52.558 Q122.438 -65.657 107.999 -72.566 Q93.56 -79.475 77.313 -79.475 Q61.201 -79.475 46.998 -72.423 Q32.796 -65.371 23.369 -52.558 Q22.6 -51.628 21.911 -51.591 Q21.223 -51.553 20.578 -52 Z M96.13 28.489 Q80.017 24.296 69.418 11.998 Q58.819 -0.301 58.819 -17.902 Q58.819 -25.481 64.32 -30.579 Q69.821 -35.677 77.57 -35.677 Q85.194 -35.677 90.625 -30.579 Q96.055 -25.481 96.055 -17.902 Q96.055 -11.831 100.65 -7.797 Q105.245 -3.761 111.324 -3.761 Q117.489 -3.761 121.899 -7.83 Q126.308 -11.898 126.308 -17.902 Q126.308 -37.43 111.888 -50.719 Q97.469 -64.007 77.338 -64.007 Q57.207 -64.007 42.824 -50.744 Q28.442 -37.481 28.442 -17.902 Q28.442 -13.97 29.453 -7.917 Q30.464 -1.864 33.118 6.038 Q33.441 6.844 33.18 7.309 Q32.92 7.774 32.188 8.221 Q31.419 8.543 30.755 8.312 Q30.092 8.08 29.769 7.29 Q27.425 0.667 26.216 -5.455 Q25.006 -11.576 25.006 -17.902 Q25.006 -38.812 40.503 -53.264 Q56 -67.716 77.319 -67.716 Q98.871 -67.716 114.407 -53.32 Q129.943 -38.923 129.943 -17.902 Q129.943 -10.501 124.491 -5.333 Q119.039 -0.164 111.362 -0.164 Q103.709 -0.164 98.127 -5.333 Q92.545 -10.501 92.545 -17.902 Q92.545 -23.942 88.138 -28.073 Q83.732 -32.203 77.561 -32.203 Q71.289 -32.203 66.791 -28.106 Q62.292 -24.009 62.292 -17.902 Q62.292 -1.381 72.203 9.64 Q82.113 20.662 97.023 25.053 Q97.934 25.383 98.266 25.906 Q98.598 26.428 98.437 27.135 Q98.152 27.918 97.606 28.365 Q97.06 28.811 96.13 28.489 Z M40.077 -85.999 Q39.643 -85.925 39.053 -86.104 Q38.464 -86.284 38.266 -86.768 Q38.067 -87.215 38.067 -87.922 Q38.067 -88.629 38.551 -88.951 Q47.494 -93.95 57.448 -96.468 Q67.403 -98.986 77.561 -98.986 Q87.755 -98.986 97.554 -96.53 Q107.352 -94.074 116.398 -89.274 Q117.328 -88.827 117.533 -88.12 Q117.737 -87.413 117.415 -86.805 Q117.092 -86.321 116.466 -85.999 Q115.84 -85.676 115.157 -85.999 Q106.537 -90.849 96.989 -93.162 Q87.441 -95.475 77.501 -95.475 Q67.688 -95.475 58.298 -93.013 Q48.908 -90.551 40.077 -85.999 Z M61.56 26.715 Q52.456 17.04 47.277 6.459 Q42.099 -4.121 42.099 -17.906 Q42.099 -32.129 52.542 -41.903 Q62.986 -51.677 77.567 -51.677 Q92.148 -51.677 102.623 -41.903 Q113.098 -32.129 113.098 -17.902 Q113.098 -17.058 112.652 -16.612 Q112.205 -16.165 111.362 -16.165 Q110.804 -16.165 110.196 -16.612 Q109.588 -17.058 109.588 -17.902 Q109.588 -30.715 100.145 -39.46 Q90.703 -48.204 77.564 -48.204 Q64.426 -48.204 55.017 -39.46 Q45.609 -30.715 45.609 -17.911 Q45.609 -4.32 50.366 5.107 Q55.123 14.534 64.103 24.186 Q64.872 24.978 64.667 25.667 Q64.463 26.355 64.103 26.715 Q63.657 27.161 62.931 27.279 Q62.205 27.397 61.56 26.715 Z M110.035 15.068 Q96.093 15.068 85.816 5.687 Q75.539 -3.694 75.539 -17.902 Q75.539 -18.658 75.979 -19.167 Q76.418 -19.676 77.25 -19.676 Q78.082 -19.676 78.547 -19.167 Q79.013 -18.658 79.013 -17.902 Q79.013 -4.956 88.297 3.319 Q97.581 11.595 110.035 11.595 Q111.697 11.595 113.532 11.433 Q115.368 11.272 117.216 10.95 Q117.775 10.912 118.258 11.191 Q118.742 11.47 118.903 12.228 Q119.189 12.937 118.761 13.438 Q118.333 13.939 117.526 14.1 Q115.74 14.658 113.687 14.863 Q111.635 15.068 110.035 15.068 Z"/></g><g id="Ultralight-L" transform="matrix(1 0 0 1 491.205 1556)"><path d="M20.801 -52 Q20.398 -52.322 20.358 -52.967 Q20.317 -53.612 20.64 -54.096 Q30.637 -67.641 45.486 -75.22 Q60.335 -82.799 77.239 -82.799 Q94.215 -82.799 109.35 -75.462 Q124.485 -68.125 134.644 -54.419 Q135.127 -53.612 134.886 -52.967 Q134.644 -52.322 133.999 -51.839 Q133.515 -51.516 132.716 -51.579 Q131.917 -51.642 131.419 -52.484 Q122.066 -65.545 107.721 -72.398 Q93.376 -79.251 77.239 -79.251 Q61.275 -79.251 47.166 -72.237 Q33.056 -65.222 23.704 -52.484 Q22.898 -51.516 22.172 -51.516 Q21.446 -51.516 20.801 -52 Z M95.944 28.303 Q79.98 24.11 69.418 11.847 Q58.856 -0.416 58.856 -17.976 Q58.856 -25.555 64.339 -30.634 Q69.821 -35.714 77.572 -35.714 Q85.162 -35.714 90.553 -30.634 Q95.944 -25.555 95.944 -17.976 Q95.944 -11.923 100.49 -7.935 Q105.037 -3.947 111.052 -3.947 Q117.229 -3.947 121.583 -7.979 Q125.936 -12.01 125.936 -17.976 Q125.936 -37.413 111.617 -50.673 Q97.297 -63.932 77.271 -63.932 Q57.244 -63.932 42.973 -50.706 Q28.703 -37.479 28.703 -17.976 Q28.703 -14.026 29.751 -8.019 Q30.799 -2.012 33.379 5.889 Q33.701 6.695 33.459 7.179 Q33.218 7.663 32.411 8.146 Q31.605 8.469 30.96 8.216 Q30.315 7.964 29.992 7.179 Q27.574 0.406 26.364 -5.641 Q25.155 -11.687 25.155 -17.976 Q25.155 -38.919 40.561 -53.28 Q55.966 -67.641 77.246 -67.641 Q98.685 -67.641 114.165 -53.28 Q129.645 -38.919 129.645 -17.976 Q129.645 -10.581 124.202 -5.41 Q118.759 -0.239 111.101 -0.239 Q103.523 -0.239 97.959 -5.41 Q92.396 -10.581 92.396 -17.976 Q92.396 -23.942 88.046 -28.054 Q83.696 -32.166 77.561 -32.166 Q71.294 -32.166 66.849 -28.098 Q62.404 -24.029 62.404 -17.976 Q62.404 -1.53 72.24 9.436 Q82.076 20.401 96.911 24.755 Q97.805 25.087 98.165 25.622 Q98.524 26.156 98.362 26.882 Q98.04 27.658 97.476 28.141 Q96.911 28.625 95.944 28.303 Z M40.151 -85.701 Q39.829 -85.701 39.184 -85.862 Q38.539 -86.024 38.377 -86.507 Q38.216 -86.991 38.216 -87.717 Q38.216 -88.442 38.7 -88.765 Q47.569 -93.764 57.486 -96.263 Q67.403 -98.762 77.561 -98.762 Q87.669 -98.762 97.383 -96.344 Q107.098 -93.925 116.1 -89.087 Q117.068 -88.604 117.309 -87.878 Q117.551 -87.152 117.229 -86.507 Q116.906 -86.024 116.261 -85.701 Q115.616 -85.379 114.971 -85.701 Q106.425 -90.7 96.915 -92.957 Q87.406 -95.215 77.483 -95.215 Q67.725 -95.215 58.373 -92.716 Q49.02 -90.216 40.151 -85.701 Z M61.598 26.529 Q52.568 16.854 47.407 6.292 Q42.248 -4.27 42.248 -17.982 Q42.248 -32.166 52.656 -41.922 Q63.064 -51.677 77.569 -51.677 Q92.074 -51.677 102.474 -41.922 Q112.875 -32.166 112.875 -17.976 Q112.875 -17.122 112.415 -16.662 Q111.956 -16.202 111.101 -16.202 Q110.618 -16.202 109.972 -16.662 Q109.328 -17.122 109.328 -17.976 Q109.328 -30.715 99.979 -39.422 Q90.63 -48.13 77.565 -48.13 Q64.5 -48.13 55.148 -39.422 Q45.795 -30.715 45.795 -17.989 Q45.795 -4.431 50.552 4.921 Q55.309 14.274 64.177 23.918 Q64.984 24.755 64.742 25.481 Q64.5 26.206 64.177 26.529 Q63.694 27.013 62.968 27.093 Q62.242 27.174 61.598 26.529 Z M109.811 14.919 Q95.944 14.919 85.704 5.554 Q75.465 -3.811 75.465 -17.976 Q75.465 -18.718 75.915 -19.234 Q76.366 -19.75 77.205 -19.75 Q78.045 -19.75 78.529 -19.234 Q79.013 -18.718 79.013 -17.976 Q79.013 -5.065 88.204 3.153 Q97.395 11.371 109.811 11.371 Q111.585 11.371 113.439 11.21 Q115.294 11.049 117.068 10.726 Q117.551 10.726 118.035 10.968 Q118.519 11.21 118.68 12.05 Q119.002 12.778 118.519 13.284 Q118.035 13.79 117.229 13.951 Q115.778 14.435 113.762 14.677 Q111.746 14.919 109.811 14.919 Z"/></g><g id="Bold-M" transform="matrix(1 0 0 1 2281.8 1126)"><path d="M16.875 -45.23 Q15.5 -46.105 15.062 -47.605 Q14.625 -49.105 15.625 -50.48 Q23.125 -61.73 35 -67.917 Q46.875 -74.105 60.375 -74.105 Q73.625 -74.105 85.312 -68.355 Q97 -62.605 104.625 -51.73 Q106 -49.855 105.5 -48.292 Q105 -46.73 103.75 -45.73 Q102.5 -44.855 100.938 -44.98 Q99.375 -45.105 98.375 -46.73 Q92 -56.105 81.875 -60.98 Q71.75 -65.855 60.375 -65.98 Q49 -66.105 38.938 -61.105 Q28.875 -56.105 22.75 -46.605 Q21.5 -44.73 19.812 -44.605 Q18.125 -44.48 16.875 -45.23 Z M76.125 17.02 Q60.625 14.145 52.438 3.645 Q44.25 -6.855 44.25 -21.23 Q44.25 -28.23 49 -33.167 Q53.75 -38.105 60.5 -38.105 Q67.25 -38.105 72 -33.417 Q76.75 -28.73 76.75 -21.98 Q76.75 -18.48 79.125 -15.917 Q81.5 -13.355 85 -13.355 Q88.5 -13.355 90.812 -15.917 Q93.125 -18.48 93.125 -21.98 Q93.125 -35.48 83.562 -44.792 Q74 -54.105 60.375 -54.105 Q46.75 -54.105 37.375 -44.48 Q28 -34.855 28 -21.23 Q28 -15.98 28.625 -11.98 Q29.25 -7.98 30.5 -4.355 Q31.125 -2.48 30.5 -1.042 Q29.875 0.395 28.375 1.02 Q26.625 1.645 25.188 0.958 Q23.75 0.27 22.875 -1.73 Q21.5 -5.23 20.688 -10.167 Q19.875 -15.105 19.875 -21.23 Q19.875 -38.355 31.625 -50.23 Q43.375 -62.105 60.375 -62.105 Q77.375 -62.105 89.25 -50.417 Q101.125 -38.73 101.125 -21.98 Q101.125 -15.105 96.438 -10.23 Q91.75 -5.355 85 -5.355 Q78.25 -5.355 73.438 -9.917 Q68.625 -14.48 68.625 -21.23 Q68.625 -24.855 66.312 -27.417 Q64 -29.98 60.5 -29.98 Q57 -29.98 54.688 -27.417 Q52.375 -24.855 52.375 -21.23 Q52.375 -9.48 58.812 -1.355 Q65.25 6.77 78.5 9.395 Q80.25 9.645 80.875 11.02 Q81.5 12.395 81.125 13.895 Q80.75 15.27 79.562 16.333 Q78.375 17.395 76.125 17.02 Z M32.75 -71.23 Q31 -70.23 29.312 -70.605 Q27.625 -70.98 26.75 -72.48 Q26.125 -73.73 26.625 -75.417 Q27.125 -77.105 28.625 -77.98 Q35.875 -82.355 44 -84.23 Q52.125 -86.105 60.5 -86.105 Q68.75 -86.105 76.5 -84.167 Q84.25 -82.23 91.5 -78.48 Q93.375 -77.48 93.75 -75.917 Q94.125 -74.355 93.5 -72.98 Q92.75 -71.605 91.25 -70.917 Q89.75 -70.23 88 -71.23 Q81.625 -74.73 74.625 -76.417 Q67.625 -78.105 60.5 -78.105 Q53.25 -78.105 46.188 -76.417 Q39.125 -74.73 32.75 -71.23 Z M46.25 14.27 Q38.875 6.77 35.5 -1.917 Q32.125 -10.605 32.125 -21.23 Q32.125 -33.23 40.375 -41.667 Q48.625 -50.105 60.5 -50.105 Q72.25 -50.105 80.625 -41.917 Q89 -33.73 89 -21.98 Q89 -19.98 88 -18.667 Q87 -17.355 85 -17.355 Q83 -17.355 81.938 -18.667 Q80.875 -19.98 80.875 -21.98 Q80.875 -30.355 74.938 -36.23 Q69 -42.105 60.5 -42.105 Q51.875 -42.105 46 -35.98 Q40.125 -29.855 40.125 -21.23 Q40.125 -12.105 42.875 -5.105 Q45.625 1.895 52.25 8.895 Q53.5 10.145 53.562 11.708 Q53.625 13.27 52.75 14.395 Q51.5 15.895 49.5 15.708 Q47.5 15.52 46.25 14.27 Z M86.625 6.645 Q74.125 6.645 65.312 -0.542 Q56.5 -7.73 56.5 -21.73 Q56.5 -23.48 57.562 -24.73 Q58.625 -25.98 60.5 -25.98 Q62.375 -25.98 63.438 -24.73 Q64.5 -23.48 64.5 -21.73 Q64.5 -11.355 70.875 -6.417 Q77.25 -1.48 86.625 -1.48 Q87.875 -1.48 89.438 -1.73 Q91 -1.98 92.375 -1.98 Q94 -1.98 95.188 -1.042 Q96.375 -0.105 96.375 1.52 Q96.375 3.27 95.5 4.208 Q94.625 5.145 93.375 5.645 Q91.625 6.27 89.812 6.458 Q88 6.645 86.625 6.645 Z"/></g><g id="Semibold-M" transform="matrix(1 0 0 1 1985.97 1126)"><path d="M16.603 -45.991 Q15.446 -46.757 15.117 -48.013 Q14.788 -49.268 15.679 -50.48 Q23.288 -61.458 35.081 -67.51 Q46.875 -73.561 60.266 -73.561 Q73.516 -73.561 85.231 -67.839 Q96.946 -62.116 104.679 -51.295 Q105.837 -49.746 105.418 -48.483 Q105 -47.219 103.967 -46.382 Q102.935 -45.616 101.617 -45.714 Q100.299 -45.811 99.407 -47.165 Q92.815 -56.703 82.391 -61.714 Q71.967 -66.724 60.266 -66.795 Q48.565 -66.866 38.258 -61.784 Q27.951 -56.703 21.446 -47.094 Q20.413 -45.545 19.024 -45.42 Q17.636 -45.295 16.603 -45.991 Z M75.31 15.988 Q60.897 12.949 52.682 2.803 Q44.467 -7.344 44.467 -21.556 Q44.467 -28.23 49.109 -32.869 Q53.75 -37.507 60.337 -37.507 Q66.924 -37.507 71.565 -33.01 Q76.207 -28.513 76.207 -21.98 Q76.207 -18.208 78.908 -15.537 Q81.609 -12.866 85.435 -12.866 Q89.261 -12.866 91.872 -15.537 Q94.484 -18.208 94.484 -21.98 Q94.484 -35.915 84.459 -45.472 Q74.435 -55.029 60.321 -55.029 Q46.206 -55.029 36.288 -45.295 Q26.37 -35.561 26.37 -21.61 Q26.37 -17.339 26.968 -13.121 Q27.565 -8.904 29.196 -4.246 Q29.712 -2.697 29.169 -1.504 Q28.625 -0.311 27.343 0.205 Q25.919 0.721 24.698 0.142 Q23.478 -0.436 22.821 -2.002 Q21.228 -6.099 20.416 -10.983 Q19.603 -15.866 19.603 -21.556 Q19.603 -38.464 31.489 -50.067 Q43.375 -61.67 60.266 -61.67 Q77.212 -61.67 89.196 -50.173 Q101.179 -38.676 101.179 -21.98 Q101.179 -15.377 96.6 -10.801 Q92.022 -6.224 85.435 -6.224 Q78.848 -6.224 74.144 -10.624 Q69.44 -15.023 69.44 -21.556 Q69.44 -25.398 66.802 -28.07 Q64.163 -30.741 60.337 -30.741 Q56.511 -30.741 53.872 -28.07 Q51.234 -25.398 51.234 -21.556 Q51.234 -9.643 57.997 -1.518 Q64.761 6.607 77.196 9.504 Q78.674 9.808 79.19 10.966 Q79.707 12.123 79.386 13.406 Q79.065 14.564 78.068 15.436 Q77.071 16.308 75.31 15.988 Z M32.641 -72.045 Q31.217 -71.208 29.829 -71.556 Q28.44 -71.904 27.728 -73.186 Q27.157 -74.328 27.549 -75.635 Q27.94 -76.942 29.223 -77.708 Q36.364 -81.811 44.272 -83.741 Q52.179 -85.67 60.337 -85.67 Q68.478 -85.67 76.174 -83.733 Q83.87 -81.795 91.065 -78.1 Q92.614 -77.263 92.908 -75.999 Q93.201 -74.735 92.685 -73.578 Q92.098 -72.42 90.87 -71.814 Q89.641 -71.208 88.109 -72.045 Q81.625 -75.491 74.598 -77.233 Q67.571 -78.974 60.337 -78.974 Q53.087 -78.974 46.052 -77.287 Q39.016 -75.599 32.641 -72.045 Z M46.685 13.672 Q39.31 6.064 35.69 -2.352 Q32.071 -10.768 32.071 -21.556 Q32.071 -33.284 40.321 -41.45 Q48.571 -49.616 60.337 -49.616 Q72.033 -49.616 80.408 -41.591 Q88.783 -33.567 88.783 -21.98 Q88.783 -20.36 87.918 -19.32 Q87.054 -18.279 85.435 -18.279 Q83.87 -18.279 82.943 -19.32 Q82.016 -20.36 82.016 -21.98 Q82.016 -30.79 75.644 -36.855 Q69.272 -42.92 60.337 -42.92 Q51.331 -42.92 45.049 -36.714 Q38.766 -30.507 38.766 -21.556 Q38.766 -11.996 41.843 -4.969 Q44.919 2.058 51.598 9.112 Q52.63 10.145 52.666 11.463 Q52.701 12.781 51.88 13.743 Q50.848 14.917 49.283 14.811 Q47.717 14.705 46.685 13.672 Z M85.918 5.667 Q74.016 5.667 65.475 -1.656 Q56.935 -8.98 56.935 -21.839 Q56.935 -23.263 57.834 -24.295 Q58.734 -25.328 60.283 -25.328 Q61.831 -25.328 62.731 -24.295 Q63.63 -23.263 63.63 -21.839 Q63.63 -11.898 70.168 -6.499 Q76.707 -1.1 85.918 -1.1 Q86.951 -1.1 88.432 -1.295 Q89.913 -1.491 91.343 -1.6 Q92.75 -1.708 93.775 -0.934 Q94.799 -0.159 94.908 1.248 Q95.016 2.672 94.25 3.528 Q93.484 4.384 92.343 4.776 Q90.375 5.401 88.617 5.534 Q86.859 5.667 85.918 5.667 Z"/></g><g id="Medium-M" transform="matrix(1 0 0 1 1689.91 1126)"><path d="M16.399 -46.561 Q15.405 -47.246 15.158 -48.318 Q14.91 -49.39 15.72 -50.48 Q23.41 -61.254 35.143 -67.204 Q46.875 -73.154 60.185 -73.154 Q73.435 -73.154 85.17 -67.451 Q96.905 -61.749 104.72 -50.969 Q105.715 -49.665 105.357 -48.625 Q105 -47.586 104.13 -46.871 Q103.261 -46.186 102.126 -46.264 Q100.992 -46.341 100.182 -47.491 Q93.427 -57.151 82.778 -62.264 Q72.13 -67.377 60.185 -67.407 Q48.239 -67.436 37.749 -62.294 Q27.258 -57.151 20.467 -47.461 Q19.598 -46.157 18.433 -46.032 Q17.269 -45.907 16.399 -46.561 Z M74.698 15.213 Q61.1 12.053 52.865 2.171 Q44.63 -7.711 44.63 -21.801 Q44.63 -28.23 49.19 -32.644 Q53.75 -37.059 60.215 -37.059 Q66.679 -37.059 71.239 -32.704 Q75.799 -28.35 75.799 -21.98 Q75.799 -18.004 78.745 -15.252 Q81.69 -12.499 85.761 -12.499 Q89.832 -12.499 92.667 -15.252 Q95.503 -18.004 95.503 -21.98 Q95.503 -36.241 85.132 -45.981 Q74.761 -55.722 60.28 -55.722 Q45.799 -55.722 35.473 -45.907 Q25.147 -36.091 25.147 -21.896 Q25.147 -18.358 25.724 -13.977 Q26.302 -9.597 28.217 -4.165 Q28.652 -2.86 28.17 -1.851 Q27.688 -0.841 26.568 -0.407 Q25.389 0.028 24.331 -0.469 Q23.274 -0.966 22.78 -2.205 Q21.024 -6.752 20.212 -11.594 Q19.399 -16.436 19.399 -21.801 Q19.399 -38.545 31.387 -49.945 Q43.375 -61.344 60.185 -61.344 Q77.09 -61.344 89.155 -49.989 Q101.22 -38.635 101.22 -21.98 Q101.22 -15.58 96.723 -11.229 Q92.225 -6.877 85.761 -6.877 Q79.296 -6.877 74.674 -11.154 Q70.052 -15.431 70.052 -21.801 Q70.052 -25.806 67.168 -28.559 Q64.285 -31.311 60.215 -31.311 Q56.144 -31.311 53.261 -28.559 Q50.378 -25.806 50.378 -21.801 Q50.378 -9.765 57.386 -1.64 Q64.394 6.485 76.217 9.585 Q77.492 9.93 77.927 10.925 Q78.361 11.92 78.082 13.039 Q77.802 14.034 76.947 14.763 Q76.092 15.493 74.698 15.213 Z M32.56 -72.657 Q31.38 -71.942 30.216 -72.269 Q29.052 -72.597 28.462 -73.716 Q27.932 -74.776 28.242 -75.798 Q28.552 -76.82 29.671 -77.504 Q36.731 -81.404 44.475 -83.374 Q52.22 -85.344 60.215 -85.344 Q68.275 -85.344 75.929 -83.407 Q83.584 -81.469 90.739 -77.814 Q92.043 -77.1 92.276 -76.06 Q92.508 -75.021 92.073 -74.026 Q91.609 -73.032 90.584 -72.487 Q89.56 -71.942 88.19 -72.657 Q81.625 -76.061 74.578 -77.844 Q67.53 -79.627 60.215 -79.627 Q52.965 -79.627 45.95 -77.939 Q38.935 -76.252 32.56 -72.657 Z M47.011 13.224 Q39.636 5.534 35.833 -2.678 Q32.03 -10.89 32.03 -21.801 Q32.03 -33.325 40.28 -41.287 Q48.53 -49.249 60.215 -49.249 Q71.87 -49.249 80.245 -41.347 Q88.62 -33.445 88.62 -21.98 Q88.62 -20.646 87.857 -19.809 Q87.095 -18.972 85.761 -18.972 Q84.522 -18.972 83.697 -19.809 Q82.872 -20.646 82.872 -21.98 Q82.872 -31.116 76.174 -37.324 Q69.475 -43.532 60.215 -43.532 Q50.924 -43.532 44.336 -37.264 Q37.747 -30.996 37.747 -21.801 Q37.747 -11.915 41.068 -4.867 Q44.389 2.18 51.109 9.275 Q51.978 10.145 51.993 11.28 Q52.008 12.414 51.228 13.254 Q50.359 14.183 49.12 14.138 Q47.88 14.093 47.011 13.224 Z M85.389 4.933 Q73.935 4.933 65.598 -2.492 Q57.261 -9.917 57.261 -21.92 Q57.261 -23.1 58.038 -23.969 Q58.815 -24.839 60.12 -24.839 Q61.424 -24.839 62.201 -23.969 Q62.978 -23.1 62.978 -21.92 Q62.978 -12.306 69.639 -6.56 Q76.299 -0.814 85.389 -0.814 Q86.258 -0.814 87.678 -0.969 Q89.098 -1.124 90.568 -1.314 Q91.812 -1.504 92.715 -0.852 Q93.617 -0.2 93.807 1.045 Q93.997 2.224 93.312 3.019 Q92.628 3.814 91.568 4.123 Q89.438 4.748 87.72 4.841 Q86.003 4.933 85.389 4.933 Z"/></g><g id="Regular-M" transform="matrix(1 0 0 1 1394.06 1126)"><path d="M16.25 -46.98 Q15.375 -47.605 15.188 -48.542 Q15 -49.48 15.75 -50.48 Q23.5 -61.105 35.188 -66.98 Q46.875 -72.855 60.125 -72.855 Q73.375 -72.855 85.125 -67.167 Q96.875 -61.48 104.75 -50.73 Q105.625 -49.605 105.312 -48.73 Q105 -47.855 104.25 -47.23 Q103.5 -46.605 102.5 -46.667 Q101.5 -46.73 100.75 -47.73 Q93.875 -57.48 83.062 -62.667 Q72.25 -67.855 60.125 -67.855 Q48 -67.855 37.375 -62.667 Q26.75 -57.48 19.75 -47.73 Q19 -46.605 18 -46.48 Q17 -46.355 16.25 -46.98 Z M74.25 14.645 Q61.25 11.395 53 1.708 Q44.75 -7.98 44.75 -21.98 Q44.75 -28.23 49.25 -32.48 Q53.75 -36.73 60.125 -36.73 Q66.5 -36.73 71 -32.48 Q75.5 -28.23 75.5 -21.98 Q75.5 -17.855 78.625 -15.042 Q81.75 -12.23 86 -12.23 Q90.25 -12.23 93.25 -15.042 Q96.25 -17.855 96.25 -21.98 Q96.25 -36.48 85.625 -46.355 Q75 -56.23 60.25 -56.23 Q45.5 -56.23 34.875 -46.355 Q24.25 -36.48 24.25 -22.105 Q24.25 -19.105 24.812 -14.605 Q25.375 -10.105 27.5 -4.105 Q27.875 -2.98 27.438 -2.105 Q27 -1.23 26 -0.855 Q25 -0.48 24.062 -0.917 Q23.125 -1.355 22.75 -2.355 Q20.875 -7.23 20.062 -12.042 Q19.25 -16.855 19.25 -21.98 Q19.25 -38.605 31.312 -49.855 Q43.375 -61.105 60.125 -61.105 Q77 -61.105 89.125 -49.855 Q101.25 -38.605 101.25 -21.98 Q101.25 -15.73 96.812 -11.542 Q92.375 -7.355 86 -7.355 Q79.625 -7.355 75.062 -11.542 Q70.5 -15.73 70.5 -21.98 Q70.5 -26.105 67.438 -28.917 Q64.375 -31.73 60.125 -31.73 Q55.875 -31.73 52.812 -28.917 Q49.75 -26.105 49.75 -21.98 Q49.75 -9.855 56.938 -1.73 Q64.125 6.395 75.5 9.645 Q76.625 10.02 77 10.895 Q77.375 11.77 77.125 12.77 Q76.875 13.645 76.125 14.27 Q75.375 14.895 74.25 14.645 Z M32.5 -73.105 Q31.5 -72.48 30.5 -72.792 Q29.5 -73.105 29 -74.105 Q28.5 -75.105 28.75 -75.917 Q29 -76.73 30 -77.355 Q37 -81.105 44.625 -83.105 Q52.25 -85.105 60.125 -85.105 Q68.125 -85.105 75.75 -83.167 Q83.375 -81.23 90.5 -77.605 Q91.625 -76.98 91.812 -76.105 Q92 -75.23 91.625 -74.355 Q91.25 -73.48 90.375 -72.98 Q89.5 -72.48 88.25 -73.105 Q81.625 -76.48 74.562 -78.292 Q67.5 -80.105 60.125 -80.105 Q52.875 -80.105 45.875 -78.417 Q38.875 -76.73 32.5 -73.105 Z M47.25 12.895 Q39.875 5.145 35.938 -2.917 Q32 -10.98 32 -21.98 Q32 -33.355 40.25 -41.167 Q48.5 -48.98 60.125 -48.98 Q71.75 -48.98 80.125 -41.167 Q88.5 -33.355 88.5 -21.98 Q88.5 -20.855 87.812 -20.167 Q87.125 -19.48 86 -19.48 Q85 -19.48 84.25 -20.167 Q83.5 -20.855 83.5 -21.98 Q83.5 -31.355 76.562 -37.667 Q69.625 -43.98 60.125 -43.98 Q50.625 -43.98 43.812 -37.667 Q37 -31.355 37 -21.98 Q37 -11.855 40.5 -4.792 Q44 2.27 50.75 9.395 Q51.5 10.145 51.5 11.145 Q51.5 12.145 50.75 12.895 Q50 13.645 49 13.645 Q48 13.645 47.25 12.895 Z M85 4.395 Q73.875 4.395 65.688 -3.105 Q57.5 -10.605 57.5 -21.98 Q57.5 -22.98 58.188 -23.73 Q58.875 -24.48 60 -24.48 Q61.125 -24.48 61.812 -23.73 Q62.5 -22.98 62.5 -21.98 Q62.5 -12.605 69.25 -6.605 Q76 -0.605 85 -0.605 Q85.75 -0.605 87.125 -0.73 Q88.5 -0.855 90 -1.105 Q91.125 -1.355 91.938 -0.792 Q92.75 -0.23 93 0.895 Q93.25 1.895 92.625 2.645 Q92 3.395 91 3.645 Q88.75 4.27 87.062 4.333 Q85.375 4.395 85 4.395 Z"/></g><g id="Light-M" transform="matrix(1 0 0 1 1098.18 1126)"><path d="M16.298 -47.317 Q15.591 -47.845 15.44 -48.639 Q15.289 -49.432 15.894 -50.288 Q23.692 -60.816 35.288 -66.715 Q46.883 -72.615 60.029 -72.615 Q73.244 -72.615 84.963 -66.927 Q96.683 -61.24 104.51 -50.538 Q105.288 -49.557 105 -48.754 Q104.712 -47.951 104.01 -47.422 Q103.308 -46.893 102.43 -46.951 Q101.552 -47.008 100.894 -47.922 Q93.923 -57.768 83.064 -62.98 Q72.206 -68.192 60.029 -68.192 Q47.904 -68.192 37.231 -62.932 Q26.558 -57.672 19.51 -47.922 Q18.808 -46.893 17.904 -46.817 Q17 -46.74 16.298 -47.317 Z M74.202 14.405 Q61.394 11.155 53.192 1.537 Q44.99 -8.081 44.99 -21.98 Q44.99 -28.134 49.442 -32.288 Q53.894 -36.441 60.128 -36.441 Q66.362 -36.441 70.763 -32.288 Q75.163 -28.134 75.163 -21.98 Q75.163 -17.733 78.37 -14.837 Q81.576 -11.941 85.937 -11.941 Q90.298 -11.941 93.394 -14.85 Q96.49 -17.759 96.49 -21.98 Q96.49 -36.602 85.755 -46.56 Q75.019 -56.518 60.115 -56.518 Q45.212 -56.518 34.514 -46.546 Q23.817 -36.574 23.817 -22.057 Q23.817 -19.033 24.452 -14.497 Q25.087 -9.961 27.163 -3.961 Q27.49 -2.98 27.125 -2.225 Q26.76 -1.47 25.856 -1.095 Q24.952 -0.72 24.135 -1.113 Q23.317 -1.506 22.99 -2.403 Q21.067 -7.422 20.231 -12.187 Q19.394 -16.951 19.394 -21.98 Q19.394 -38.503 31.387 -49.684 Q43.379 -60.865 60.031 -60.865 Q76.808 -60.865 88.861 -49.684 Q100.913 -38.503 100.913 -21.98 Q100.913 -15.833 96.56 -11.714 Q92.206 -7.595 85.952 -7.595 Q79.721 -7.595 75.231 -11.714 Q70.74 -15.833 70.74 -21.98 Q70.74 -26.201 67.607 -29.11 Q64.474 -32.018 60.125 -32.018 Q55.737 -32.018 52.575 -29.123 Q49.413 -26.227 49.413 -21.98 Q49.413 -9.711 56.697 -1.49 Q63.981 6.732 75.356 9.982 Q76.363 10.312 76.725 11.081 Q77.087 11.851 76.837 12.731 Q76.587 13.501 75.933 14.078 Q75.279 14.655 74.202 14.405 Z M32.163 -73.345 Q31.404 -72.865 30.524 -73.129 Q29.644 -73.393 29.24 -74.249 Q28.837 -75.105 29.015 -75.845 Q29.192 -76.586 30.048 -77.115 Q37 -80.913 44.625 -82.889 Q52.25 -84.865 60.125 -84.865 Q68.062 -84.865 75.626 -82.927 Q83.191 -80.99 90.26 -77.365 Q91.337 -76.788 91.5 -75.985 Q91.663 -75.182 91.337 -74.403 Q91.01 -73.624 90.207 -73.22 Q89.404 -72.817 88.394 -73.345 Q81.817 -76.865 74.684 -78.653 Q67.551 -80.442 60.102 -80.442 Q52.779 -80.442 45.731 -78.658 Q38.683 -76.874 32.163 -73.345 Z M47.394 12.751 Q40.163 5.097 36.202 -2.99 Q32.24 -11.076 32.24 -21.982 Q32.24 -33.259 40.42 -40.975 Q48.601 -48.691 60.127 -48.691 Q71.654 -48.691 79.909 -40.975 Q88.163 -33.259 88.163 -21.98 Q88.163 -20.985 87.555 -20.377 Q86.947 -19.768 85.952 -19.768 Q85.096 -19.768 84.418 -20.377 Q83.74 -20.985 83.74 -21.98 Q83.74 -31.451 76.732 -37.86 Q69.723 -44.268 60.126 -44.268 Q50.529 -44.268 43.596 -37.86 Q36.663 -31.451 36.663 -21.984 Q36.663 -11.759 40.212 -4.672 Q43.76 2.414 50.51 9.626 Q51.26 10.385 51.188 11.265 Q51.115 12.145 50.51 12.751 Q49.856 13.405 48.976 13.429 Q48.096 13.453 47.394 12.751 Z M84.952 4.155 Q73.971 4.155 65.856 -3.277 Q57.74 -10.709 57.74 -21.98 Q57.74 -22.865 58.346 -23.528 Q58.951 -24.191 59.942 -24.191 Q60.933 -24.191 61.548 -23.528 Q62.163 -22.865 62.163 -21.98 Q62.163 -12.457 68.986 -6.363 Q75.808 -0.268 84.952 -0.268 Q85.942 -0.268 87.317 -0.393 Q88.692 -0.518 90.144 -0.768 Q91.077 -0.97 91.745 -0.504 Q92.413 -0.038 92.663 0.953 Q92.913 1.834 92.337 2.494 Q91.76 3.155 90.856 3.405 Q89.038 3.885 87.399 4.02 Q85.76 4.155 84.952 4.155 Z"/></g><g id="Thin-M" transform="matrix(1 0 0 1 802.565 1126)"><path d="M16.346 -47.653 Q15.808 -48.086 15.692 -48.735 Q15.577 -49.384 16.038 -50.095 Q23.885 -60.528 35.388 -66.451 Q46.891 -72.374 59.933 -72.374 Q73.113 -72.374 84.802 -66.687 Q96.49 -60.999 104.269 -50.345 Q104.952 -49.509 104.688 -48.778 Q104.423 -48.047 103.769 -47.615 Q103.115 -47.182 102.36 -47.234 Q101.605 -47.285 101.038 -48.115 Q93.971 -58.057 83.066 -63.292 Q72.161 -68.528 59.933 -68.528 Q47.808 -68.528 37.087 -63.196 Q26.365 -57.865 19.269 -48.115 Q18.615 -47.182 17.808 -47.153 Q17 -47.124 16.346 -47.653 Z M74.154 14.164 Q61.538 10.914 53.385 1.366 Q45.231 -8.182 45.231 -21.98 Q45.231 -28.038 49.635 -32.095 Q54.038 -36.153 60.132 -36.153 Q66.225 -36.153 70.526 -32.095 Q74.827 -28.038 74.827 -21.98 Q74.827 -17.611 78.115 -14.632 Q81.403 -11.653 85.874 -11.653 Q90.346 -11.653 93.538 -14.658 Q96.731 -17.663 96.731 -21.98 Q96.731 -36.724 85.884 -46.766 Q75.038 -56.807 59.98 -56.807 Q44.923 -56.807 34.154 -46.737 Q23.385 -36.667 23.385 -22.009 Q23.385 -18.961 24.091 -14.389 Q24.798 -9.816 26.827 -3.816 Q27.106 -2.98 26.812 -2.345 Q26.519 -1.711 25.712 -1.336 Q24.904 -0.961 24.207 -1.308 Q23.51 -1.656 23.231 -2.451 Q21.26 -7.615 20.399 -12.331 Q19.538 -17.047 19.538 -21.98 Q19.538 -38.401 31.46 -49.512 Q43.382 -60.624 59.937 -60.624 Q76.615 -60.624 88.596 -49.512 Q100.577 -38.401 100.577 -21.98 Q100.577 -15.935 96.307 -11.886 Q92.038 -7.836 85.904 -7.836 Q79.817 -7.836 75.399 -11.886 Q70.981 -15.935 70.981 -21.98 Q70.981 -26.297 67.776 -29.302 Q64.572 -32.307 60.125 -32.307 Q55.599 -32.307 52.338 -29.328 Q49.077 -26.349 49.077 -21.98 Q49.077 -9.567 56.457 -1.25 Q63.837 7.068 75.212 10.318 Q76.1 10.603 76.449 11.268 Q76.798 11.932 76.548 12.692 Q76.298 13.357 75.74 13.885 Q75.183 14.414 74.154 14.164 Z M31.827 -73.586 Q31.308 -73.249 30.548 -73.466 Q29.788 -73.682 29.481 -74.393 Q29.173 -75.105 29.279 -75.773 Q29.385 -76.441 30.096 -76.874 Q37 -80.72 44.625 -82.672 Q52.25 -84.624 60.125 -84.624 Q67.998 -84.624 75.503 -82.687 Q83.007 -80.749 90.019 -77.124 Q91.048 -76.595 91.188 -75.865 Q91.327 -75.134 91.048 -74.451 Q90.769 -73.768 90.038 -73.461 Q89.308 -73.153 88.538 -73.586 Q82.01 -77.249 74.805 -79.014 Q67.601 -80.778 60.078 -80.778 Q52.683 -80.778 45.587 -78.898 Q38.49 -77.018 31.827 -73.586 Z M47.538 12.607 Q40.452 5.049 36.466 -3.062 Q32.481 -11.172 32.481 -21.983 Q32.481 -33.163 40.591 -40.783 Q48.701 -48.403 60.13 -48.403 Q71.558 -48.403 79.692 -40.783 Q87.827 -33.163 87.827 -21.98 Q87.827 -21.115 87.298 -20.586 Q86.769 -20.057 85.904 -20.057 Q85.192 -20.057 84.587 -20.586 Q83.981 -21.115 83.981 -21.98 Q83.981 -31.547 76.901 -38.052 Q69.822 -44.557 60.127 -44.557 Q50.433 -44.557 43.38 -38.052 Q36.327 -31.547 36.327 -21.987 Q36.327 -11.663 39.923 -4.552 Q43.519 2.559 50.269 9.858 Q51.019 10.626 50.875 11.385 Q50.731 12.145 50.269 12.607 Q49.712 13.164 48.952 13.212 Q48.192 13.26 47.538 12.607 Z M84.904 3.914 Q74.067 3.914 66.024 -3.449 Q57.981 -10.812 57.981 -21.98 Q57.981 -22.749 58.504 -23.326 Q59.028 -23.903 59.884 -23.903 Q60.74 -23.903 61.284 -23.326 Q61.827 -22.749 61.827 -21.98 Q61.827 -12.31 68.721 -6.121 Q75.615 0.068 84.904 0.068 Q86.135 0.068 87.51 -0.057 Q88.885 -0.182 90.288 -0.432 Q91.029 -0.586 91.553 -0.216 Q92.077 0.155 92.327 1.011 Q92.577 1.772 92.048 2.343 Q91.519 2.914 90.712 3.164 Q89.327 3.501 87.736 3.708 Q86.144 3.914 84.904 3.914 Z"/></g><g id="Ultralight-M" transform="matrix(1 0 0 1 506.415 1126)"><path d="M16.375 -47.855 Q15.938 -48.23 15.844 -48.792 Q15.75 -49.355 16.125 -49.98 Q24 -60.355 35.448 -66.292 Q46.896 -72.23 59.875 -72.23 Q73.035 -72.23 84.705 -66.542 Q96.375 -60.855 104.125 -50.23 Q104.75 -49.48 104.5 -48.792 Q104.25 -48.105 103.625 -47.73 Q103 -47.355 102.318 -47.404 Q101.636 -47.452 101.125 -48.23 Q94 -58.23 83.067 -63.48 Q72.135 -68.73 59.875 -68.73 Q47.75 -68.73 37 -63.355 Q26.25 -57.98 19.125 -48.23 Q18.5 -47.355 17.75 -47.355 Q17 -47.355 16.375 -47.855 Z M74.125 14.02 Q61.625 10.77 53.5 1.264 Q45.375 -8.242 45.375 -21.98 Q45.375 -27.98 49.75 -31.98 Q54.125 -35.98 60.134 -35.98 Q66.142 -35.98 70.384 -31.98 Q74.625 -27.98 74.625 -21.98 Q74.625 -17.538 77.962 -14.509 Q81.299 -11.48 85.837 -11.48 Q90.375 -11.48 93.625 -14.542 Q96.875 -17.605 96.875 -21.98 Q96.875 -36.797 85.962 -46.889 Q75.049 -56.98 59.9 -56.98 Q44.75 -56.98 33.938 -46.852 Q23.125 -36.724 23.125 -21.98 Q23.125 -18.917 23.875 -14.324 Q24.625 -9.73 26.625 -3.73 Q26.875 -2.98 26.625 -2.417 Q26.375 -1.855 25.625 -1.48 Q24.875 -1.105 24.25 -1.426 Q23.625 -1.747 23.375 -2.48 Q21.375 -7.73 20.5 -12.417 Q19.625 -17.105 19.625 -21.98 Q19.625 -38.339 31.505 -49.41 Q43.385 -60.48 59.881 -60.48 Q76.5 -60.48 88.438 -49.41 Q100.375 -38.339 100.375 -21.98 Q100.375 -15.997 96.156 -11.988 Q91.936 -7.98 85.875 -7.98 Q79.875 -7.98 75.5 -11.988 Q71.125 -15.997 71.125 -21.98 Q71.125 -26.355 67.878 -29.417 Q64.631 -32.48 60.125 -32.48 Q55.517 -32.48 52.196 -29.451 Q48.875 -26.422 48.875 -21.98 Q48.875 -9.481 56.312 -1.105 Q63.75 7.27 75.125 10.52 Q75.943 10.778 76.284 11.379 Q76.625 11.981 76.375 12.669 Q76.125 13.27 75.625 13.77 Q75.125 14.27 74.125 14.02 Z M31.625 -73.73 Q31.25 -73.48 30.562 -73.667 Q29.875 -73.855 29.625 -74.48 Q29.375 -75.105 29.438 -75.73 Q29.5 -76.355 30.125 -76.73 Q37 -80.605 44.625 -82.542 Q52.25 -84.48 60.125 -84.48 Q67.96 -84.48 75.428 -82.542 Q82.897 -80.605 89.875 -76.98 Q90.875 -76.48 91 -75.792 Q91.125 -75.105 90.875 -74.48 Q90.625 -73.855 89.938 -73.605 Q89.25 -73.355 88.625 -73.73 Q82.125 -77.48 74.878 -79.23 Q67.632 -80.98 60.064 -80.98 Q52.625 -80.98 45.5 -79.042 Q38.375 -77.105 31.625 -73.73 Z M47.625 12.52 Q40.625 5.02 36.625 -3.105 Q32.625 -11.23 32.625 -21.984 Q32.625 -33.105 40.693 -40.667 Q48.762 -48.23 60.131 -48.23 Q71.5 -48.23 79.562 -40.667 Q87.625 -33.105 87.625 -21.98 Q87.625 -21.192 87.144 -20.711 Q86.662 -20.23 85.875 -20.23 Q85.25 -20.23 84.688 -20.711 Q84.125 -21.192 84.125 -21.98 Q84.125 -31.605 77.003 -38.167 Q69.881 -44.73 60.128 -44.73 Q50.375 -44.73 43.25 -38.167 Q36.125 -31.605 36.125 -21.99 Q36.125 -11.605 39.75 -4.48 Q43.375 2.645 50.125 9.996 Q50.875 10.77 50.688 11.458 Q50.5 12.145 50.125 12.52 Q49.625 13.02 48.938 13.083 Q48.25 13.145 47.625 12.52 Z M84.875 3.77 Q74.125 3.77 66.125 -3.552 Q58.125 -10.874 58.125 -21.98 Q58.125 -22.68 58.599 -23.205 Q59.073 -23.73 59.849 -23.73 Q60.625 -23.73 61.125 -23.205 Q61.625 -22.68 61.625 -21.98 Q61.625 -12.221 68.562 -5.976 Q75.5 0.27 84.875 0.27 Q86.25 0.27 87.625 0.145 Q89 0.02 90.375 -0.23 Q91 -0.355 91.438 -0.042 Q91.875 0.27 92.125 1.046 Q92.375 1.736 91.875 2.253 Q91.375 2.77 90.625 3.02 Q89.5 3.27 87.938 3.52 Q86.375 3.77 84.875 3.77 Z"/></g><g id="Bold-S" transform="matrix(1 0 0 1 2294.23 696)"><path d="M13.421 -42.923 Q12.229 -43.613 11.884 -44.861 Q11.539 -46.109 12.328 -47.262 Q18.246 -56.237 27.615 -61.119 Q36.984 -66.001 47.636 -66.001 Q58.09 -66.001 67.361 -61.514 Q76.632 -57.026 82.559 -48.356 Q83.634 -46.868 83.24 -45.487 Q82.845 -44.106 81.76 -43.317 Q80.675 -42.627 79.442 -42.731 Q78.21 -42.835 77.421 -44.205 Q72.489 -51.602 64.547 -55.399 Q56.605 -59.196 47.682 -59.294 Q38.76 -59.393 30.87 -55.497 Q22.98 -51.602 18.246 -44.106 Q17.161 -42.528 15.829 -42.43 Q14.498 -42.331 13.421 -42.923 Z M60.26 5.995 Q47.833 3.826 41.324 -4.558 Q34.815 -12.941 34.815 -24.283 Q34.815 -29.806 38.591 -33.751 Q42.368 -37.696 47.735 -37.696 Q53.101 -37.696 56.878 -33.997 Q60.654 -30.299 60.654 -24.973 Q60.654 -22.31 62.469 -20.288 Q64.283 -18.266 66.964 -18.266 Q69.645 -18.266 71.412 -20.288 Q73.18 -22.31 73.18 -25.019 Q73.18 -35.484 65.722 -42.704 Q58.265 -49.925 47.636 -49.925 Q37.047 -49.925 29.767 -42.417 Q22.486 -34.908 22.486 -24.283 Q22.486 -19.943 22.98 -16.787 Q23.473 -13.631 24.36 -11.067 Q24.854 -9.51 24.311 -8.316 Q23.769 -7.122 22.585 -6.629 Q21.204 -6.136 19.972 -6.727 Q18.739 -7.319 18.048 -8.864 Q16.963 -11.461 16.372 -15.421 Q15.78 -19.381 15.78 -24.283 Q15.78 -37.836 25.022 -47.234 Q34.263 -56.632 47.636 -56.632 Q61.049 -56.632 70.418 -47.361 Q79.788 -38.09 79.788 -24.973 Q79.788 -19.422 76.06 -15.491 Q72.333 -11.56 66.966 -11.56 Q61.6 -11.56 57.774 -15.216 Q53.948 -18.873 53.948 -24.283 Q53.948 -27.059 52.185 -29.024 Q50.423 -30.989 47.747 -30.989 Q45.072 -30.989 43.296 -29.024 Q41.521 -27.059 41.521 -24.283 Q41.521 -15.054 46.6 -8.672 Q51.68 -2.289 62.232 -0.218 Q63.672 -0.004 64.185 1.122 Q64.698 2.248 64.386 3.465 Q64.075 4.58 63.09 5.436 Q62.106 6.291 60.26 5.995 Z M25.84 -63.437 Q24.41 -62.648 23.029 -62.944 Q21.648 -63.239 20.933 -64.423 Q20.415 -65.409 20.859 -66.839 Q21.303 -68.269 22.486 -68.967 Q28.207 -72.463 34.617 -73.966 Q41.028 -75.469 47.686 -75.469 Q54.246 -75.469 60.409 -73.94 Q66.572 -72.412 72.292 -69.453 Q73.87 -68.664 74.166 -67.332 Q74.462 -66.001 73.969 -64.817 Q73.377 -63.634 72.136 -63.141 Q70.895 -62.648 69.432 -63.437 Q64.402 -66.198 58.879 -67.53 Q53.356 -68.861 47.735 -68.861 Q42.014 -68.861 36.442 -67.53 Q30.87 -66.198 25.84 -63.437 Z M36.393 3.826 Q30.574 -2.092 27.96 -8.976 Q25.347 -15.859 25.347 -24.283 Q25.347 -33.751 31.856 -40.408 Q38.365 -47.065 47.735 -47.065 Q57.005 -47.065 63.613 -40.634 Q70.221 -34.202 70.221 -24.973 Q70.221 -23.306 69.413 -22.216 Q68.604 -21.127 66.995 -21.127 Q65.388 -21.127 64.451 -22.216 Q63.515 -23.306 63.515 -24.973 Q63.515 -31.384 58.913 -35.97 Q54.312 -40.556 47.719 -40.556 Q41.028 -40.556 36.491 -35.723 Q31.955 -30.89 31.955 -24.283 Q31.955 -17.124 34.026 -11.63 Q36.097 -6.136 41.324 -0.613 Q42.409 0.427 42.458 1.732 Q42.507 3.037 41.817 3.973 Q40.831 5.206 39.145 5.058 Q37.46 4.91 36.393 3.826 Z M68.544 -2.191 Q58.485 -2.191 51.482 -7.812 Q44.48 -13.434 44.48 -24.752 Q44.48 -26.156 45.318 -27.192 Q46.157 -28.228 47.728 -28.228 Q49.299 -28.228 50.193 -27.212 Q51.088 -26.196 51.088 -24.776 Q51.088 -16.491 56.118 -12.694 Q61.148 -8.897 68.544 -8.897 Q69.629 -8.897 70.813 -9.094 Q71.996 -9.292 73.114 -9.292 Q74.421 -9.292 75.376 -8.517 Q76.33 -7.742 76.336 -6.333 Q76.336 -4.913 75.596 -4.143 Q74.856 -3.374 73.901 -2.98 Q72.588 -2.486 71.158 -2.339 Q69.728 -2.191 68.544 -2.191 Z"/></g><g id="Semibold-S" transform="matrix(1 0 0 1 1998.1 696)"><path d="M13.206 -43.523 Q12.187 -44.128 11.927 -45.183 Q11.668 -46.237 12.371 -47.262 Q18.374 -56.023 27.679 -60.797 Q36.984 -65.572 47.55 -65.572 Q58.004 -65.572 67.297 -61.106 Q76.589 -56.64 82.602 -48.013 Q83.505 -46.782 83.175 -45.637 Q82.845 -44.492 81.932 -43.832 Q81.018 -43.227 79.978 -43.31 Q78.939 -43.393 78.235 -44.548 Q73.133 -52.073 64.955 -55.978 Q56.777 -59.882 47.597 -59.938 Q38.417 -59.993 30.334 -56.033 Q22.251 -52.073 17.217 -44.492 Q16.303 -43.171 15.208 -43.073 Q14.112 -42.974 13.206 -43.523 Z M59.617 5.181 Q48.048 2.882 41.517 -5.222 Q34.986 -13.327 34.986 -24.54 Q34.986 -29.806 38.677 -33.515 Q42.368 -37.224 47.606 -37.224 Q52.844 -37.224 56.535 -33.676 Q60.226 -30.127 60.226 -24.973 Q60.226 -22.096 62.297 -19.988 Q64.369 -17.881 67.307 -17.881 Q70.245 -17.881 72.248 -19.988 Q74.252 -22.096 74.252 -25.019 Q74.252 -35.827 66.43 -43.24 Q58.608 -50.654 47.593 -50.654 Q36.619 -50.654 28.909 -43.06 Q21.2 -35.466 21.2 -24.583 Q21.2 -21.015 21.672 -17.688 Q22.144 -14.36 23.331 -10.981 Q23.739 -9.682 23.261 -8.681 Q22.782 -7.679 21.77 -7.272 Q20.647 -6.865 19.586 -7.371 Q18.524 -7.877 18.005 -9.078 Q16.749 -12.147 16.157 -16.065 Q15.566 -19.982 15.566 -24.54 Q15.566 -37.922 24.914 -47.105 Q34.263 -56.289 47.55 -56.289 Q60.92 -56.289 70.375 -47.168 Q79.831 -38.047 79.831 -24.973 Q79.831 -19.637 76.189 -15.941 Q72.548 -12.246 67.309 -12.246 Q62.072 -12.246 58.331 -15.774 Q54.591 -19.301 54.591 -24.54 Q54.591 -27.488 52.571 -29.539 Q50.551 -31.589 47.619 -31.589 Q44.686 -31.589 42.653 -29.539 Q40.621 -27.488 40.621 -24.54 Q40.621 -15.183 45.957 -8.8 Q51.294 -2.418 61.203 -0.132 Q62.429 0.125 62.856 1.079 Q63.283 2.033 63.014 3.079 Q62.746 4.023 61.911 4.728 Q61.077 5.434 59.617 5.181 Z M25.754 -64.08 Q24.581 -63.42 23.436 -63.694 Q22.291 -63.968 21.705 -64.98 Q21.23 -65.881 21.588 -67.011 Q21.946 -68.141 22.958 -68.753 Q28.593 -72.034 34.832 -73.58 Q41.071 -75.126 47.557 -75.126 Q54.031 -75.126 60.151 -73.597 Q66.272 -72.069 71.949 -69.153 Q73.27 -68.492 73.501 -67.397 Q73.733 -66.301 73.326 -65.289 Q72.862 -64.277 71.836 -63.848 Q70.809 -63.42 69.518 -64.08 Q64.402 -66.799 58.858 -68.173 Q53.313 -69.547 47.606 -69.547 Q41.886 -69.547 36.335 -68.216 Q30.784 -66.884 25.754 -64.08 Z M36.736 3.354 Q30.917 -2.649 28.11 -9.319 Q25.304 -15.988 25.304 -24.54 Q25.304 -33.794 31.813 -40.236 Q38.322 -46.679 47.606 -46.679 Q56.834 -46.679 63.442 -40.376 Q70.049 -34.074 70.049 -24.973 Q70.049 -23.606 69.348 -22.731 Q68.647 -21.856 67.338 -21.856 Q66.074 -21.856 65.245 -22.731 Q64.415 -23.606 64.415 -24.973 Q64.415 -31.727 59.47 -36.463 Q54.526 -41.199 47.591 -41.199 Q40.599 -41.199 35.741 -36.302 Q30.883 -31.405 30.883 -24.54 Q30.883 -17.038 33.211 -11.523 Q35.539 -6.007 40.809 -0.441 Q41.723 0.427 41.751 1.539 Q41.778 2.651 41.131 3.459 Q40.316 4.434 38.974 4.351 Q37.631 4.267 36.736 3.354 Z M67.987 -2.962 Q58.399 -2.962 51.611 -8.691 Q44.823 -14.42 44.823 -24.838 Q44.823 -25.985 45.533 -26.849 Q46.242 -27.713 47.556 -27.713 Q48.87 -27.713 49.636 -26.869 Q50.402 -26.024 50.402 -24.862 Q50.402 -16.92 55.56 -12.758 Q60.719 -8.597 67.987 -8.597 Q68.9 -8.597 70.02 -8.751 Q71.139 -8.906 72.299 -8.992 Q73.435 -9.077 74.261 -8.431 Q75.087 -7.785 75.178 -6.547 Q75.264 -5.384 74.61 -4.679 Q73.956 -3.974 73.086 -3.666 Q71.602 -3.173 70.215 -3.067 Q68.827 -2.962 67.987 -2.962 Z"/></g><g id="Medium-S" transform="matrix(1 0 0 1 1701.85 696)"><path d="M13.045 -43.973 Q12.154 -44.514 11.959 -45.424 Q11.764 -46.334 12.403 -47.262 Q18.471 -55.862 27.728 -60.556 Q36.984 -65.251 47.486 -65.251 Q57.94 -65.251 67.248 -60.801 Q76.557 -56.351 82.634 -47.756 Q83.409 -46.718 83.127 -45.75 Q82.845 -44.782 82.06 -44.218 Q81.276 -43.677 80.38 -43.744 Q79.485 -43.811 78.846 -44.805 Q73.615 -52.427 65.26 -56.412 Q56.905 -60.397 47.532 -60.42 Q38.159 -60.444 29.932 -56.435 Q21.704 -52.427 16.445 -44.782 Q15.66 -43.654 14.741 -43.555 Q13.822 -43.457 13.045 -43.973 Z M59.134 4.57 Q48.208 2.175 41.662 -5.721 Q35.115 -13.616 35.115 -24.733 Q35.115 -29.806 38.741 -33.338 Q42.368 -36.87 47.509 -36.87 Q52.651 -36.87 56.277 -33.434 Q59.904 -29.999 59.904 -24.973 Q59.904 -21.935 62.169 -19.763 Q64.433 -17.591 67.564 -17.591 Q70.695 -17.591 72.875 -19.763 Q75.056 -21.935 75.056 -25.019 Q75.056 -36.084 66.96 -43.642 Q58.865 -51.201 47.561 -51.201 Q36.297 -51.201 28.266 -43.542 Q20.235 -35.884 20.235 -24.808 Q20.235 -21.819 20.691 -18.363 Q21.146 -14.907 22.559 -10.917 Q22.903 -9.81 22.473 -8.954 Q22.043 -8.097 21.159 -7.754 Q20.229 -7.411 19.296 -7.853 Q18.364 -8.295 17.973 -9.239 Q16.588 -12.662 15.997 -16.547 Q15.405 -20.432 15.405 -24.733 Q15.405 -37.986 24.834 -47.009 Q34.263 -56.031 47.486 -56.031 Q60.824 -56.031 70.343 -47.023 Q79.863 -38.015 79.863 -24.973 Q79.863 -19.797 76.286 -16.279 Q72.709 -12.761 67.567 -12.761 Q62.425 -12.761 58.75 -16.192 Q55.073 -19.623 55.073 -24.733 Q55.073 -27.81 52.861 -29.925 Q50.648 -32.04 47.522 -32.04 Q44.396 -32.04 42.171 -29.925 Q39.945 -27.81 39.945 -24.733 Q39.945 -15.279 45.475 -8.897 Q51.004 -2.514 60.431 -0.068 Q61.496 0.222 61.859 1.047 Q62.222 1.872 61.985 2.79 Q61.748 3.605 61.027 4.198 Q60.305 4.79 59.134 4.57 Z M25.69 -64.562 Q24.71 -63.999 23.742 -64.257 Q22.774 -64.515 22.284 -65.398 Q21.841 -66.235 22.135 -67.139 Q22.429 -68.044 23.312 -68.592 Q28.882 -71.713 34.993 -73.291 Q41.103 -74.869 47.461 -74.869 Q53.871 -74.869 59.959 -73.34 Q66.047 -71.811 71.692 -68.928 Q72.82 -68.364 73.003 -67.445 Q73.186 -66.526 72.843 -65.643 Q72.477 -64.76 71.611 -64.379 Q70.745 -63.999 69.582 -64.562 Q64.402 -67.249 58.842 -68.655 Q53.281 -70.062 47.509 -70.062 Q41.789 -70.062 36.254 -68.73 Q30.72 -67.399 25.69 -64.562 Z M36.993 3 Q31.174 -3.067 28.223 -9.576 Q25.272 -16.085 25.272 -24.733 Q25.272 -33.826 31.781 -40.108 Q38.29 -46.39 47.509 -46.39 Q56.705 -46.39 63.313 -40.183 Q69.921 -33.977 69.921 -24.973 Q69.921 -23.832 69.3 -23.117 Q68.679 -22.402 67.595 -22.402 Q66.589 -22.402 65.84 -23.117 Q65.09 -23.832 65.09 -24.973 Q65.09 -31.984 59.889 -36.833 Q54.687 -41.681 47.494 -41.681 Q40.278 -41.681 35.178 -36.736 Q30.078 -31.791 30.078 -24.733 Q30.078 -16.974 32.6 -11.442 Q35.121 -5.91 40.423 -0.313 Q41.208 0.427 41.22 1.394 Q41.232 2.361 40.616 3.073 Q39.93 3.855 38.845 3.82 Q37.76 3.785 36.993 3 Z M67.569 -3.541 Q58.335 -3.541 51.707 -9.351 Q45.08 -15.16 45.08 -24.902 Q45.08 -25.856 45.693 -26.592 Q46.307 -27.327 47.428 -27.327 Q48.548 -27.327 49.218 -26.611 Q49.887 -25.896 49.887 -24.926 Q49.887 -17.242 55.142 -12.807 Q60.397 -8.372 67.569 -8.372 Q68.354 -8.372 69.425 -8.494 Q70.495 -8.616 71.688 -8.766 Q72.695 -8.916 73.424 -8.367 Q74.154 -7.817 74.31 -6.708 Q74.46 -5.738 73.87 -5.081 Q73.281 -4.425 72.475 -4.18 Q70.862 -3.687 69.507 -3.614 Q68.152 -3.541 67.569 -3.541 Z"/></g><g id="Regular-S" transform="matrix(1 0 0 1 1405.73 696)"><path d="M12.927 -44.303 Q12.131 -44.797 11.983 -45.601 Q11.835 -46.405 12.427 -47.262 Q18.541 -55.744 27.763 -60.379 Q36.984 -65.015 47.439 -65.015 Q57.893 -65.015 67.213 -60.577 Q76.533 -56.138 82.658 -47.567 Q83.338 -46.67 83.092 -45.832 Q82.845 -44.994 82.155 -44.501 Q81.464 -44.008 80.675 -44.062 Q79.886 -44.117 79.294 -44.994 Q73.969 -52.687 65.484 -56.73 Q57 -60.774 47.485 -60.774 Q37.971 -60.774 29.637 -56.73 Q21.303 -52.687 15.879 -44.994 Q15.188 -44.008 14.399 -43.909 Q13.61 -43.81 12.927 -44.303 Z M58.781 4.121 Q48.326 1.656 41.768 -6.086 Q35.209 -13.828 35.209 -24.874 Q35.209 -29.806 38.789 -33.208 Q42.368 -36.611 47.439 -36.611 Q52.509 -36.611 56.089 -33.257 Q59.668 -29.904 59.668 -24.973 Q59.668 -21.817 62.074 -19.598 Q64.481 -17.379 67.753 -17.379 Q71.025 -17.379 73.335 -19.598 Q75.645 -21.817 75.645 -25.019 Q75.645 -36.273 67.35 -43.937 Q59.054 -51.602 47.537 -51.602 Q36.061 -51.602 27.794 -43.896 Q19.528 -36.19 19.528 -24.973 Q19.528 -22.409 19.972 -18.858 Q20.415 -15.308 21.993 -10.87 Q22.289 -9.905 21.895 -9.154 Q21.5 -8.404 20.711 -8.108 Q19.922 -7.812 19.084 -8.207 Q18.246 -8.601 17.95 -9.357 Q16.47 -13.039 15.879 -16.901 Q15.287 -20.762 15.287 -24.874 Q15.287 -38.033 24.775 -46.938 Q34.263 -55.843 47.439 -55.843 Q60.753 -55.843 70.32 -46.917 Q79.886 -37.991 79.886 -24.973 Q79.886 -19.915 76.356 -16.527 Q72.826 -13.138 67.755 -13.138 Q62.685 -13.138 59.056 -16.498 Q55.427 -19.859 55.427 -24.874 Q55.427 -28.046 53.073 -30.208 Q50.718 -32.37 47.451 -32.37 Q44.184 -32.37 41.817 -30.208 Q39.45 -28.046 39.45 -24.874 Q39.45 -15.35 45.121 -8.968 Q50.792 -2.585 59.865 -0.021 Q60.812 0.292 61.128 1.023 Q61.443 1.754 61.23 2.578 Q61.017 3.298 60.378 3.808 Q59.739 4.319 58.781 4.121 Z M25.643 -64.916 Q24.804 -64.423 23.966 -64.67 Q23.128 -64.916 22.708 -65.705 Q22.289 -66.494 22.536 -67.234 Q22.782 -67.973 23.571 -68.474 Q29.094 -71.477 35.111 -73.078 Q41.127 -74.68 47.39 -74.68 Q53.753 -74.68 59.817 -73.151 Q65.882 -71.623 71.503 -68.762 Q72.489 -68.269 72.637 -67.48 Q72.785 -66.691 72.489 -65.902 Q72.194 -65.113 71.446 -64.768 Q70.698 -64.423 69.629 -64.916 Q64.402 -67.579 58.83 -69.009 Q53.258 -70.439 47.439 -70.439 Q41.718 -70.439 36.195 -69.108 Q30.672 -67.776 25.643 -64.916 Z M37.182 2.741 Q31.363 -3.374 28.305 -9.765 Q25.248 -16.155 25.248 -24.874 Q25.248 -33.849 31.757 -40.013 Q38.267 -46.177 47.439 -46.177 Q56.611 -46.177 63.219 -40.042 Q69.827 -33.906 69.827 -24.973 Q69.827 -23.997 69.265 -23.4 Q68.703 -22.803 67.784 -22.803 Q66.966 -22.803 66.276 -23.4 Q65.586 -23.997 65.586 -24.973 Q65.586 -32.173 60.195 -37.104 Q54.805 -42.035 47.423 -42.035 Q40.042 -42.035 34.765 -37.055 Q29.489 -32.074 29.489 -24.874 Q29.489 -16.927 32.152 -11.383 Q34.815 -5.84 40.14 -0.218 Q40.831 0.427 40.831 1.288 Q40.831 2.149 40.239 2.79 Q39.647 3.431 38.751 3.431 Q37.854 3.431 37.182 2.741 Z M67.262 -3.966 Q58.287 -3.966 51.778 -9.834 Q45.269 -15.702 45.269 -24.949 Q45.269 -25.762 45.811 -26.403 Q46.354 -27.044 47.333 -27.044 Q48.313 -27.044 48.911 -26.423 Q49.51 -25.801 49.51 -24.973 Q49.51 -17.477 54.836 -12.842 Q60.161 -8.207 67.262 -8.207 Q67.953 -8.207 68.988 -8.305 Q70.024 -8.404 71.24 -8.601 Q72.152 -8.798 72.811 -8.319 Q73.47 -7.84 73.673 -6.826 Q73.87 -5.998 73.328 -5.376 Q72.785 -4.755 72.027 -4.558 Q70.32 -4.064 68.988 -4.015 Q67.657 -3.966 67.262 -3.966 Z"/></g><g id="Light-S" transform="matrix(1 0 0 1 1109.75 696)"><path d="M12.965 -44.569 Q12.302 -44.986 12.182 -45.676 Q12.063 -46.367 12.541 -47.11 Q18.693 -55.516 27.842 -60.171 Q36.991 -64.825 47.363 -64.825 Q57.79 -64.825 67.085 -60.387 Q76.381 -55.949 82.468 -47.416 Q83.073 -46.633 82.845 -45.851 Q82.617 -45.07 81.965 -44.653 Q81.312 -44.235 80.62 -44.286 Q79.928 -44.336 79.408 -45.146 Q74.007 -52.914 65.486 -56.977 Q56.965 -61.039 47.409 -61.039 Q37.895 -61.039 29.523 -56.939 Q21.151 -52.838 15.689 -45.146 Q15.036 -44.235 14.323 -44.175 Q13.61 -44.114 12.965 -44.569 Z M58.743 3.932 Q48.44 1.466 41.919 -6.221 Q35.399 -13.908 35.399 -24.874 Q35.399 -29.73 38.94 -33.056 Q42.482 -36.383 47.441 -36.383 Q52.401 -36.383 55.902 -33.106 Q59.403 -29.828 59.403 -24.973 Q59.403 -21.721 61.873 -19.436 Q64.344 -17.151 67.703 -17.151 Q71.063 -17.151 73.449 -19.446 Q75.835 -21.741 75.835 -25.019 Q75.835 -36.369 67.452 -44.099 Q59.069 -51.829 47.431 -51.829 Q35.834 -51.829 27.51 -44.047 Q19.186 -36.264 19.186 -24.935 Q19.186 -22.352 19.687 -18.773 Q20.188 -15.194 21.728 -10.756 Q21.986 -9.905 21.648 -9.249 Q21.311 -8.594 20.597 -8.298 Q19.884 -8.002 19.141 -8.361 Q18.397 -8.72 18.139 -9.395 Q16.622 -13.191 16.011 -17.015 Q15.401 -20.838 15.401 -24.874 Q15.401 -37.953 24.833 -46.803 Q34.266 -55.653 47.364 -55.653 Q60.601 -55.653 70.111 -46.782 Q79.621 -37.911 79.621 -24.973 Q79.621 -19.996 76.157 -16.662 Q72.693 -13.328 67.717 -13.328 Q62.761 -13.328 59.189 -16.634 Q55.617 -19.94 55.617 -24.874 Q55.617 -28.121 53.207 -30.359 Q50.796 -32.598 47.451 -32.598 Q44.075 -32.598 41.63 -30.37 Q39.184 -28.142 39.184 -24.874 Q39.184 -15.236 44.931 -8.778 Q50.678 -2.32 59.752 0.245 Q60.605 0.522 60.911 1.17 Q61.216 1.818 61.003 2.547 Q60.79 3.184 60.226 3.657 Q59.663 4.129 58.743 3.932 Z M25.377 -65.106 Q24.728 -64.726 23.985 -64.935 Q23.241 -65.144 22.898 -65.819 Q22.555 -66.494 22.745 -67.177 Q22.934 -67.86 23.609 -68.284 Q29.094 -71.325 35.111 -72.908 Q41.127 -74.49 47.39 -74.49 Q53.703 -74.49 59.72 -72.962 Q65.736 -71.433 71.313 -68.573 Q72.262 -68.118 72.391 -67.385 Q72.52 -66.653 72.262 -65.94 Q72.004 -65.227 71.313 -64.958 Q70.622 -64.689 69.743 -65.106 Q64.554 -67.882 58.926 -69.294 Q53.297 -70.705 47.42 -70.705 Q41.643 -70.705 36.082 -69.297 Q30.521 -67.89 25.377 -65.106 Z M37.295 2.627 Q31.59 -3.412 28.514 -9.822 Q25.438 -16.231 25.438 -24.876 Q25.438 -33.773 31.892 -39.862 Q38.346 -45.95 47.44 -45.95 Q56.535 -45.95 63.048 -39.89 Q69.561 -33.83 69.561 -24.973 Q69.561 -24.099 69.062 -23.565 Q68.563 -23.031 67.746 -23.031 Q67.042 -23.031 66.409 -23.565 Q65.775 -24.099 65.775 -24.973 Q65.775 -32.248 60.329 -37.256 Q54.882 -42.263 47.424 -42.263 Q39.966 -42.263 34.595 -37.206 Q29.223 -32.15 29.223 -24.877 Q29.223 -16.851 31.924 -11.288 Q34.625 -5.726 39.951 -0.036 Q40.641 0.617 40.584 1.383 Q40.527 2.149 40.049 2.676 Q39.533 3.241 38.732 3.26 Q37.93 3.279 37.295 2.627 Z M67.224 -4.156 Q58.363 -4.156 51.911 -9.97 Q45.459 -15.784 45.459 -24.949 Q45.459 -25.671 45.936 -26.244 Q46.414 -26.816 47.287 -26.816 Q48.161 -26.816 48.703 -26.263 Q49.244 -25.71 49.244 -24.973 Q49.244 -17.361 54.627 -12.651 Q60.009 -7.941 67.224 -7.941 Q68.104 -7.941 69.14 -8.04 Q70.176 -8.138 71.354 -8.336 Q72.115 -8.495 72.66 -8.092 Q73.205 -7.689 73.407 -6.78 Q73.605 -6.046 73.1 -5.495 Q72.596 -4.945 71.913 -4.747 Q70.547 -4.368 69.254 -4.262 Q67.96 -4.156 67.224 -4.156 Z"/></g><g id="Thin-S" transform="matrix(1 0 0 1 814.015 696)"><path d="M13.003 -44.835 Q12.472 -45.176 12.381 -45.752 Q12.29 -46.329 12.654 -46.959 Q18.845 -55.289 27.921 -59.962 Q36.997 -64.635 47.287 -64.635 Q57.686 -64.635 66.958 -60.197 Q76.23 -55.759 82.278 -47.264 Q82.807 -46.595 82.598 -45.87 Q82.39 -45.146 81.775 -44.804 Q81.161 -44.463 80.565 -44.509 Q79.969 -44.555 79.522 -45.297 Q74.045 -53.142 65.487 -57.223 Q56.93 -61.305 47.333 -61.305 Q37.819 -61.305 29.409 -57.148 Q21 -52.99 15.499 -45.297 Q14.885 -44.463 14.248 -44.44 Q13.61 -44.417 13.003 -44.835 Z M58.705 3.742 Q48.554 1.276 42.071 -6.356 Q35.588 -13.987 35.588 -24.874 Q35.588 -29.654 39.092 -32.905 Q42.595 -36.156 47.444 -36.156 Q52.292 -36.156 55.715 -32.954 Q59.137 -29.753 59.137 -24.973 Q59.137 -21.624 61.672 -19.274 Q64.207 -16.924 67.654 -16.924 Q71.101 -16.924 73.563 -19.294 Q76.025 -21.665 76.025 -25.019 Q76.025 -36.465 67.554 -44.261 Q59.084 -52.057 47.325 -52.057 Q35.606 -52.057 27.225 -44.197 Q18.845 -36.338 18.845 -24.897 Q18.845 -22.295 19.403 -18.688 Q19.96 -15.08 21.462 -10.642 Q21.682 -9.905 21.402 -9.344 Q21.121 -8.783 20.484 -8.487 Q19.846 -8.192 19.198 -8.515 Q18.549 -8.839 18.329 -9.433 Q16.774 -13.343 16.144 -17.128 Q15.515 -20.914 15.515 -24.874 Q15.515 -37.872 24.892 -46.668 Q34.269 -55.463 47.29 -55.463 Q60.45 -55.463 69.902 -46.647 Q79.355 -37.83 79.355 -24.973 Q79.355 -20.077 75.958 -16.797 Q72.56 -13.517 67.68 -13.517 Q62.837 -13.517 59.322 -16.769 Q55.807 -20.021 55.807 -24.874 Q55.807 -28.197 53.34 -30.511 Q50.874 -32.825 47.451 -32.825 Q43.966 -32.825 41.443 -30.532 Q38.919 -28.238 38.919 -24.874 Q38.919 -15.123 44.742 -8.589 Q50.564 -2.054 59.638 0.51 Q60.398 0.752 60.693 1.317 Q60.988 1.882 60.775 2.516 Q60.562 3.07 60.075 3.505 Q59.587 3.939 58.705 3.742 Z M25.111 -65.295 Q24.653 -65.03 24.004 -65.201 Q23.355 -65.371 23.088 -65.933 Q22.82 -66.494 22.953 -67.12 Q23.086 -67.746 23.647 -68.095 Q29.094 -71.173 35.111 -72.737 Q41.127 -74.301 47.39 -74.301 Q53.653 -74.301 59.622 -72.772 Q65.591 -71.243 71.124 -68.383 Q72.034 -67.966 72.144 -67.291 Q72.254 -66.616 72.034 -65.978 Q71.814 -65.341 71.18 -65.147 Q70.546 -64.954 69.857 -65.295 Q64.706 -68.186 59.021 -69.578 Q53.337 -70.97 47.402 -70.97 Q41.567 -70.97 35.968 -69.487 Q30.369 -68.004 25.111 -65.295 Z M37.409 2.513 Q31.818 -3.45 28.723 -9.879 Q25.627 -16.307 25.627 -24.877 Q25.627 -33.698 32.026 -39.71 Q38.425 -45.722 47.442 -45.722 Q56.459 -45.722 62.877 -39.738 Q69.295 -33.755 69.295 -24.973 Q69.295 -24.201 68.859 -23.73 Q68.422 -23.258 67.708 -23.258 Q67.118 -23.258 66.541 -23.73 Q65.965 -24.201 65.965 -24.973 Q65.965 -32.324 60.462 -37.407 Q54.96 -42.49 47.425 -42.49 Q39.89 -42.49 34.424 -37.358 Q28.958 -32.226 28.958 -24.88 Q28.958 -16.775 31.697 -11.194 Q34.435 -5.612 39.761 0.147 Q40.451 0.807 40.338 1.478 Q40.224 2.149 39.86 2.562 Q39.42 3.052 38.713 3.09 Q38.006 3.128 37.409 2.513 Z M67.186 -4.345 Q58.439 -4.345 52.044 -10.105 Q45.648 -15.866 45.648 -24.949 Q45.648 -25.58 46.061 -26.084 Q46.474 -26.589 47.242 -26.589 Q48.009 -26.589 48.494 -26.104 Q48.979 -25.619 48.979 -24.973 Q48.979 -17.245 54.418 -12.46 Q59.858 -7.676 67.186 -7.676 Q68.256 -7.676 69.292 -7.774 Q70.327 -7.873 71.468 -8.07 Q72.077 -8.192 72.508 -7.864 Q72.939 -7.537 73.142 -6.734 Q73.339 -6.094 72.873 -5.614 Q72.406 -5.134 71.799 -4.937 Q70.775 -4.671 69.519 -4.508 Q68.264 -4.345 67.186 -4.345 Z"/></g><g id="Ultralight-S" transform="matrix(1 0 0 1 517.792 696)"><path d="M13.026 -44.994 Q12.575 -45.29 12.501 -45.798 Q12.427 -46.306 12.723 -46.868 Q18.936 -55.152 27.969 -59.837 Q37.001 -64.522 47.241 -64.522 Q57.625 -64.522 66.881 -60.083 Q76.139 -55.645 82.164 -47.173 Q82.648 -46.572 82.451 -45.881 Q82.253 -45.191 81.662 -44.895 Q81.07 -44.599 80.532 -44.643 Q79.994 -44.687 79.59 -45.388 Q74.067 -53.278 65.488 -57.371 Q56.909 -61.464 47.288 -61.464 Q37.773 -61.464 29.341 -57.273 Q20.909 -53.081 15.386 -45.388 Q14.794 -44.599 14.202 -44.599 Q13.61 -44.599 13.026 -44.994 Z M58.682 3.628 Q48.622 1.163 42.162 -6.436 Q35.702 -14.035 35.702 -24.874 Q35.702 -29.608 39.183 -32.814 Q42.664 -36.019 47.445 -36.019 Q52.227 -36.019 55.602 -32.863 Q58.978 -29.707 58.978 -24.973 Q58.978 -21.567 61.551 -19.177 Q64.124 -16.787 67.624 -16.787 Q71.124 -16.787 73.631 -19.203 Q76.139 -21.62 76.139 -25.019 Q76.139 -36.523 67.616 -44.358 Q59.093 -52.193 47.261 -52.193 Q35.469 -52.193 27.055 -44.288 Q18.64 -36.382 18.64 -24.874 Q18.64 -22.261 19.232 -18.636 Q19.824 -15.012 21.303 -10.574 Q21.5 -9.905 21.254 -9.401 Q21.007 -8.897 20.415 -8.601 Q19.824 -8.305 19.232 -8.608 Q18.64 -8.91 18.443 -9.455 Q16.865 -13.434 16.224 -17.197 Q15.583 -20.959 15.583 -24.874 Q15.583 -37.824 24.927 -46.587 Q34.271 -55.349 47.246 -55.349 Q60.358 -55.349 69.777 -46.566 Q79.196 -37.782 79.196 -24.973 Q79.196 -20.126 75.838 -16.879 Q72.48 -13.631 67.657 -13.631 Q62.882 -13.631 59.401 -16.85 Q55.92 -20.07 55.92 -24.874 Q55.92 -28.243 53.42 -30.602 Q50.921 -32.962 47.451 -32.962 Q43.901 -32.962 41.33 -30.629 Q38.76 -28.296 38.76 -24.874 Q38.76 -15.055 44.628 -8.475 Q50.496 -1.895 59.57 0.67 Q60.274 0.89 60.563 1.406 Q60.852 1.921 60.639 2.498 Q60.426 3.002 59.984 3.414 Q59.542 3.826 58.682 3.628 Z M24.952 -65.409 Q24.607 -65.212 24.015 -65.36 Q23.423 -65.508 23.202 -66.001 Q22.98 -66.494 23.078 -67.086 Q23.177 -67.678 23.67 -67.981 Q29.094 -71.082 35.111 -72.635 Q41.127 -74.187 47.39 -74.187 Q53.623 -74.187 59.563 -72.658 Q65.504 -71.129 71.01 -68.269 Q71.898 -67.875 71.996 -67.234 Q72.095 -66.593 71.898 -66.001 Q71.7 -65.409 71.1 -65.261 Q70.5 -65.113 69.925 -65.409 Q64.797 -68.368 59.079 -69.749 Q53.361 -71.129 47.391 -71.129 Q41.521 -71.129 35.9 -69.601 Q30.278 -68.072 24.952 -65.409 Z M37.477 2.445 Q31.955 -3.473 28.848 -9.913 Q25.741 -16.353 25.741 -24.878 Q25.741 -33.652 32.107 -39.619 Q38.473 -45.586 47.443 -45.586 Q56.413 -45.586 62.775 -39.647 Q69.136 -33.709 69.136 -24.973 Q69.136 -24.263 68.737 -23.829 Q68.338 -23.395 67.685 -23.395 Q67.164 -23.395 66.621 -23.829 Q66.079 -24.263 66.079 -24.973 Q66.079 -32.37 60.543 -37.498 Q55.007 -42.627 47.426 -42.627 Q39.845 -42.627 34.322 -37.449 Q28.799 -32.271 28.799 -24.882 Q28.799 -16.73 31.56 -11.137 Q34.322 -5.544 39.647 0.256 Q40.338 0.921 40.19 1.535 Q40.042 2.149 39.746 2.494 Q39.351 2.938 38.701 2.987 Q38.051 3.037 37.477 2.445 Z M67.164 -4.459 Q58.485 -4.459 52.123 -10.187 Q45.762 -15.915 45.762 -24.949 Q45.762 -25.525 46.136 -25.989 Q46.51 -26.452 47.214 -26.452 Q47.918 -26.452 48.369 -26.009 Q48.819 -25.565 48.819 -24.973 Q48.819 -17.175 54.293 -12.346 Q59.767 -7.516 67.164 -7.516 Q68.347 -7.516 69.383 -7.615 Q70.418 -7.714 71.536 -7.911 Q72.054 -8.009 72.417 -7.728 Q72.78 -7.446 72.983 -6.707 Q73.18 -6.123 72.736 -5.686 Q72.292 -5.248 71.731 -5.051 Q70.911 -4.853 69.679 -4.656 Q68.446 -4.459 67.164 -4.459 Z"/></g></g></svg>